<svg width="20" height="12" viewBox="0 0 20 12" fill="none" xmlns="http://www.w3.org/2000/svg">
<path d="M19.495 6.40039C14.0443 6.40039 8.63079 6.40039 3.20792 6.40039C3.19865 6.42744 3.18938 6.4545 3.18938 6.48155C3.31916 6.54468 3.44893 6.6078 3.57871 6.67995C5.33999 7.60881 6.30405 9.07876 6.66558 10.9545C6.68412 11.0267 6.60069 11.1169 6.56361 11.207C6.48018 11.1529 6.3504 11.1078 6.32259 11.0267C6.17427 10.6028 6.10012 10.1519 5.92399 9.7461C5.12678 7.88837 3.70849 6.78817 1.65985 6.4545C1.53007 6.43646 1.43737 6.26512 1.3076 6.1569C2.03065 5.92243 2.67027 5.78716 3.23573 5.52563C4.88576 4.7591 5.84056 3.44245 6.22989 1.72C6.27624 1.50356 6.24843 1.16989 6.67485 1.31418C6.34113 3.44245 5.581 4.4615 3.12449 6.03065C3.38404 6.03065 3.56017 6.03065 3.7363 6.03065C8.844 6.03065 13.9517 6.03065 19.0686 6.03966C19.2633 6.03966 19.5785 5.92243 19.495 6.40039Z" fill="black" stroke="black"/>
</svg>
