<svg width="34" height="36" viewBox="0 0 34 36" fill="none" xmlns="http://www.w3.org/2000/svg">
<path d="M17.4828 0.259277C17.1464 0.259277 16.8711 0.534565 16.8711 0.871027V35.129C16.8711 35.4655 17.1464 35.7408 17.4828 35.7408C17.8193 35.7408 18.0946 35.4655 18.0946 35.129V0.871027C18.0946 0.534565 17.8193 0.259277 17.4828 0.259277Z" fill="white"/>
<path d="M21.4592 5.771C21.1227 5.771 20.8474 6.04628 20.8474 6.38275V29.6109C20.8474 29.9473 21.1227 30.2226 21.4592 30.2226C21.7956 30.2226 22.0709 29.9473 22.0709 29.6109V6.38275C22.0709 6.04628 21.7956 5.771 21.4592 5.771Z" fill="white"/>
<path d="M13.5065 5.771C13.1701 5.771 12.8948 6.04628 12.8948 6.38275V29.6109C12.8948 29.9473 13.1701 30.2226 13.5065 30.2226C13.843 30.2226 14.1183 29.9473 14.1183 29.6109V6.38275C14.1183 6.04628 13.843 5.771 13.5065 5.771Z" fill="white"/>
<path d="M25.4355 10.708C25.099 10.708 24.8237 10.9833 24.8237 11.3198V24.6804C24.8237 25.0168 25.099 25.2921 25.4355 25.2921C25.7719 25.2921 26.0472 25.0168 26.0472 24.6804V11.3198C26.0472 10.9833 25.7719 10.708 25.4355 10.708Z" fill="white"/>
<path d="M29.4118 14.042C29.0753 14.042 28.8 14.3173 28.8 14.6537V21.3402C28.8 21.6766 29.0753 21.9519 29.4118 21.9519C29.7483 21.9519 30.0235 21.6766 30.0235 21.3402V14.6537C30.0235 14.3173 29.7483 14.042 29.4118 14.042Z" fill="white"/>
<path d="M33.3884 15.7485C33.0519 15.7485 32.7766 16.0238 32.7766 16.3603V19.6331C32.7766 19.9696 33.0519 20.2449 33.3884 20.2449C33.7248 20.2449 34.0001 19.9696 34.0001 19.6331V16.3603C34.0001 16.0238 33.7248 15.7485 33.3884 15.7485Z" fill="white"/>
<path d="M9.52996 10.708C9.1935 10.708 8.91821 10.9833 8.91821 11.3198V24.6804C8.91821 25.0168 9.1935 25.2921 9.52996 25.2921C9.86642 25.2921 10.1417 25.0168 10.1417 24.6804V11.3198C10.1417 10.9833 9.86642 10.708 9.52996 10.708Z" fill="white"/>
<path d="M5.55364 14.042C5.21718 14.042 4.94189 14.3173 4.94189 14.6537V21.3402C4.94189 21.6766 5.21718 21.9519 5.55364 21.9519C5.89011 21.9519 6.16539 21.6766 6.16539 21.3402V14.6537C6.16539 14.3173 5.89011 14.042 5.55364 14.042Z" fill="white"/>
<path d="M1.57733 15.7485C1.24086 15.7485 0.965576 16.0238 0.965576 16.3603V19.6331C0.965576 19.9696 1.24086 20.2449 1.57733 20.2449C1.91379 20.2449 2.18908 19.9696 2.18908 19.6331V16.3603C2.18908 16.0238 1.91379 15.7485 1.57733 15.7485Z" fill="white"/>
</svg>
