<svg width="524" height="486" viewBox="0 0 524 486" fill="none" xmlns="http://www.w3.org/2000/svg">
<rect y="36.0723" width="325" height="449" rx="15" fill="#0B0B0B"/>
<rect x="19" y="56.0723" width="288" height="196" rx="10" fill="#FF69B3" fill-opacity="0.05"/>
<rect x="19" y="270.072" width="288" height="50" rx="17" fill="#FF69B3" fill-opacity="0.35"/>
<mask id="mask0_1_2" style="mask-type:alpha" maskUnits="userSpaceOnUse" x="19" y="56" width="288" height="197">
<rect x="19" y="56.0723" width="288" height="196" rx="10" fill="#FF9A65" fill-opacity="0.15"/>
</mask>
<g mask="url(#mask0_1_2)">
<path d="M77 175.573C42.2 211.973 23.8333 197.406 19 185.573V263.073H263V251.073V190.073C231 112.873 211.667 142.573 206 167.073C188.8 212.273 166.167 194.906 157 180.573C123 137.773 89.5 159.406 77 175.573Z" fill="url(#paint0_linear_1_2)" fill-opacity="0.3"/>
<path d="M19.5 186.573C24.8333 197.906 44 211.473 78 175.073C90.5 158.406 124 136.473 158 182.073C167.333 195.74 190.1 211.473 206.5 165.073C213 140.073 234.2 112.373 267 201.573" stroke="#FF69B3" stroke-width="1.5"/>
<circle cx="113.5" cy="155.572" r="8" fill="#FF69B3" stroke="#FF69B3" stroke-width="3"/>
</g>
<path d="M67.6699 296.387H64.2656V300.072H63.0879V291.395H68.3203V292.479H64.2656V295.32H67.6699V296.387ZM72.5508 294.154V295.186H72.0469C71.5117 295.186 71.0898 295.342 70.7812 295.654C70.4727 295.967 70.3184 296.404 70.3184 296.967V300.072H69.1875V294.219H70.2422L70.3184 295.104C70.4395 294.791 70.6426 294.543 70.9277 294.359C71.2129 294.176 71.5527 294.084 71.9473 294.084C72.1191 294.084 72.3203 294.107 72.5508 294.154ZM73.8633 299.352C73.2891 298.773 73.002 298.033 73.002 297.131C73.002 296.229 73.2891 295.49 73.8633 294.916C74.4414 294.338 75.1738 294.049 76.0605 294.049C76.9395 294.049 77.666 294.338 78.2402 294.916C78.8184 295.49 79.1074 296.229 79.1074 297.131C79.1074 298.033 78.8184 298.773 78.2402 299.352C77.666 299.93 76.9395 300.219 76.0605 300.219C75.1738 300.219 74.4414 299.93 73.8633 299.352ZM74.6719 295.637C74.3164 296.02 74.1387 296.518 74.1387 297.131C74.1387 297.744 74.3164 298.244 74.6719 298.631C75.0273 299.018 75.4902 299.211 76.0605 299.211C76.627 299.211 77.0879 299.018 77.4434 298.631C77.8027 298.244 77.9824 297.744 77.9824 297.131C77.9824 296.518 77.8027 296.02 77.4434 295.637C77.0879 295.25 76.627 295.057 76.0605 295.057C75.4902 295.057 75.0273 295.25 74.6719 295.637ZM81.4863 300.072H80.3555V294.207H81.3633L81.4746 294.975C81.6309 294.689 81.8613 294.463 82.166 294.295C82.4707 294.123 82.8242 294.037 83.2266 294.037C83.6758 294.037 84.0586 294.143 84.375 294.354C84.6953 294.561 84.9316 294.852 85.084 295.227C85.2207 294.859 85.457 294.57 85.793 294.359C86.1328 294.145 86.5293 294.037 86.9824 294.037C87.6504 294.037 88.1758 294.234 88.5586 294.629C88.9453 295.02 89.1387 295.555 89.1387 296.234V300.072H88.0371V296.51C88.0371 296.053 87.9199 295.697 87.6855 295.443C87.4512 295.186 87.1328 295.057 86.7305 295.057C86.3047 295.057 85.9609 295.197 85.6992 295.479C85.4414 295.756 85.3125 296.127 85.3125 296.592V300.072H84.1992V296.498C84.1992 296.041 84.082 295.689 83.8477 295.443C83.6172 295.193 83.3008 295.068 82.8984 295.068C82.4727 295.068 82.1309 295.207 81.873 295.484C81.6152 295.758 81.4863 296.127 81.4863 296.592V300.072ZM95.332 300.072H94.1777V291.395H95.332L98.3203 298.689L101.309 291.395H102.48V300.072H101.332V296.639C101.332 295.248 101.355 294.309 101.402 293.82L98.8711 300.072H97.7637L95.2441 293.844C95.3027 294.266 95.332 295.105 95.332 296.363V300.072ZM106.025 300.219C105.404 300.219 104.914 300.057 104.555 299.732C104.199 299.408 104.021 298.977 104.021 298.438C104.021 297.898 104.213 297.469 104.596 297.148C104.979 296.824 105.516 296.635 106.207 296.58L108.053 296.434V296.27C108.053 295.801 107.93 295.461 107.684 295.25C107.438 295.039 107.102 294.934 106.676 294.934C106.203 294.934 105.836 295.033 105.574 295.232C105.316 295.432 105.188 295.709 105.188 296.064H104.203C104.203 295.455 104.434 294.965 104.895 294.594C105.355 294.223 105.965 294.037 106.723 294.037C107.473 294.037 108.066 294.236 108.504 294.635C108.941 295.033 109.16 295.617 109.16 296.387V300.072H108.199L108.076 299.123C107.928 299.459 107.668 299.727 107.297 299.926C106.926 300.121 106.502 300.219 106.025 300.219ZM106.348 299.34C106.879 299.34 107.297 299.178 107.602 298.854C107.91 298.529 108.064 298.092 108.064 297.541V297.23L106.564 297.348C105.631 297.434 105.164 297.785 105.164 298.402C105.164 298.707 105.268 298.939 105.475 299.1C105.686 299.26 105.977 299.34 106.348 299.34ZM110.004 302.703V301.777H110.76C110.881 301.777 110.984 301.771 111.07 301.76C111.16 301.752 111.254 301.732 111.352 301.701C111.449 301.67 111.533 301.625 111.604 301.566C111.678 301.508 111.75 301.426 111.82 301.32C111.891 301.219 111.953 301.096 112.008 300.951L112.213 300.383L109.846 294.207H111.035L112.74 298.93L114.48 294.207H115.646L112.869 301.391C112.67 301.891 112.42 302.254 112.119 302.48C111.818 302.707 111.441 302.82 110.988 302.82C110.664 302.82 110.336 302.781 110.004 302.703ZM125.42 300.061L119.561 300.072V299.17L122.355 296.762C123.062 296.152 123.539 295.662 123.785 295.291C124.035 294.916 124.16 294.498 124.16 294.037C124.16 293.494 124.012 293.068 123.715 292.76C123.422 292.451 123.014 292.297 122.49 292.297C121.955 292.297 121.525 292.479 121.201 292.842C120.881 293.205 120.715 293.695 120.703 294.312H119.525C119.541 293.383 119.82 292.639 120.363 292.08C120.906 291.521 121.619 291.242 122.502 291.242C123.373 291.242 124.066 291.488 124.582 291.98C125.098 292.473 125.355 293.135 125.355 293.967C125.355 294.377 125.281 294.762 125.133 295.121C124.984 295.48 124.76 295.836 124.459 296.188C124.158 296.539 123.742 296.945 123.211 297.406L121.412 298.971H125.42V300.061ZM126.498 295.742C126.498 294.391 126.822 293.301 127.471 292.473C128.123 291.645 128.992 291.23 130.078 291.23C130.793 291.23 131.42 291.42 131.959 291.799C132.502 292.174 132.918 292.703 133.207 293.387C133.496 294.066 133.641 294.852 133.641 295.742C133.641 297.105 133.322 298.195 132.686 299.012C132.053 299.824 131.184 300.23 130.078 300.23C129.34 300.23 128.699 300.045 128.156 299.674C127.617 299.299 127.205 298.775 126.92 298.104C126.639 297.428 126.498 296.641 126.498 295.742ZM127.664 295.742C127.664 296.816 127.877 297.656 128.303 298.262C128.729 298.867 129.32 299.17 130.078 299.17C130.836 299.17 131.424 298.867 131.842 298.262C132.264 297.656 132.475 296.816 132.475 295.742C132.475 294.656 132.264 293.809 131.842 293.199C131.424 292.59 130.836 292.285 130.078 292.285C129.316 292.285 128.723 292.592 128.297 293.205C127.875 293.814 127.664 294.66 127.664 295.742ZM140.643 300.061L134.783 300.072V299.17L137.578 296.762C138.285 296.152 138.762 295.662 139.008 295.291C139.258 294.916 139.383 294.498 139.383 294.037C139.383 293.494 139.234 293.068 138.938 292.76C138.645 292.451 138.236 292.297 137.713 292.297C137.178 292.297 136.748 292.479 136.424 292.842C136.104 293.205 135.938 293.695 135.926 294.312H134.748C134.764 293.383 135.043 292.639 135.586 292.08C136.129 291.521 136.842 291.242 137.725 291.242C138.596 291.242 139.289 291.488 139.805 291.98C140.32 292.473 140.578 293.135 140.578 293.967C140.578 294.377 140.504 294.762 140.355 295.121C140.207 295.48 139.982 295.836 139.682 296.188C139.381 296.539 138.965 296.945 138.434 297.406L136.635 298.971H140.643V300.061ZM147.943 298.32H146.912V300.072H145.787V298.32H141.299V297.277L145.389 291.395H146.912V297.277H147.943V298.32ZM142.57 297.277H145.787V292.643L142.57 297.277ZM154.271 300.072H153.141V295.15H151.992V294.207H153.141V292.367H154.271V294.207H155.42V295.15H154.271V300.072ZM156.855 299.352C156.281 298.773 155.994 298.033 155.994 297.131C155.994 296.229 156.281 295.49 156.855 294.916C157.434 294.338 158.166 294.049 159.053 294.049C159.932 294.049 160.658 294.338 161.232 294.916C161.811 295.49 162.1 296.229 162.1 297.131C162.1 298.033 161.811 298.773 161.232 299.352C160.658 299.93 159.932 300.219 159.053 300.219C158.166 300.219 157.434 299.93 156.855 299.352ZM157.664 295.637C157.309 296.02 157.131 296.518 157.131 297.131C157.131 297.744 157.309 298.244 157.664 298.631C158.02 299.018 158.482 299.211 159.053 299.211C159.619 299.211 160.08 299.018 160.436 298.631C160.795 298.244 160.975 297.744 160.975 297.131C160.975 296.518 160.795 296.02 160.436 295.637C160.08 295.25 159.619 295.057 159.053 295.057C158.482 295.057 158.02 295.25 157.664 295.637ZM166.055 297.6V297.084H167.531V297.6C167.531 297.959 167.635 298.25 167.842 298.473C168.049 298.691 168.357 298.801 168.768 298.801C169.186 298.801 169.494 298.691 169.693 298.473C169.893 298.25 169.992 297.939 169.992 297.541V291.301H171.527V297.623C171.527 298.4 171.277 299.029 170.777 299.51C170.277 299.99 169.611 300.23 168.779 300.23C167.908 300.23 167.236 299.988 166.764 299.504C166.291 299.02 166.055 298.385 166.055 297.6ZM177.211 294.143H178.676V300.072H177.322L177.211 299.281C177.031 299.562 176.764 299.791 176.408 299.967C176.057 300.143 175.684 300.23 175.289 300.23C174.613 300.23 174.082 300.018 173.695 299.592C173.312 299.162 173.121 298.582 173.121 297.852V294.143H174.586V297.336C174.586 297.887 174.691 298.289 174.902 298.543C175.113 298.793 175.428 298.918 175.846 298.918C176.311 298.918 176.654 298.783 176.877 298.514C177.1 298.24 177.211 297.82 177.211 297.254V294.143ZM181.652 300.072H180.188V294.143H181.541L181.664 294.91C181.848 294.613 182.107 294.383 182.443 294.219C182.783 294.051 183.156 293.967 183.562 293.967C184.297 293.967 184.855 294.182 185.238 294.611C185.625 295.041 185.818 295.645 185.818 296.422V300.072H184.354V296.773C184.354 296.289 184.242 295.922 184.02 295.672C183.801 295.422 183.496 295.297 183.105 295.297C182.656 295.297 182.301 295.439 182.039 295.725C181.781 296.01 181.652 296.395 181.652 296.879V300.072ZM189.908 300.23C189.025 300.23 188.305 299.939 187.746 299.357C187.188 298.775 186.908 298.025 186.908 297.107C186.908 296.178 187.182 295.422 187.729 294.84C188.275 294.258 188.984 293.967 189.855 293.967C190.742 293.967 191.447 294.242 191.971 294.793C192.498 295.34 192.762 296.076 192.762 297.002V297.441L188.297 297.459C188.402 298.506 188.947 299.029 189.932 299.029C190.33 299.029 190.658 298.953 190.916 298.801C191.174 298.648 191.346 298.432 191.432 298.15H192.785C192.66 298.799 192.342 299.309 191.83 299.68C191.322 300.047 190.682 300.23 189.908 300.23ZM189.867 295.162C189.438 295.162 189.092 295.277 188.83 295.508C188.572 295.738 188.406 296.076 188.332 296.521H191.309C191.309 296.111 191.178 295.783 190.916 295.537C190.654 295.287 190.305 295.162 189.867 295.162ZM203.051 300.061L196.963 300.072V298.918L199.834 296.498C200.432 295.99 200.844 295.564 201.07 295.221C201.301 294.873 201.416 294.49 201.416 294.072C201.416 293.576 201.287 293.193 201.029 292.924C200.775 292.65 200.416 292.514 199.951 292.514C199.471 292.514 199.09 292.674 198.809 292.994C198.527 293.311 198.385 293.75 198.381 294.312H196.857C196.861 293.352 197.145 292.584 197.707 292.01C198.273 291.432 199.021 291.143 199.951 291.143C200.889 291.143 201.629 291.396 202.172 291.904C202.715 292.408 202.986 293.104 202.986 293.99C202.986 294.58 202.826 295.127 202.506 295.631C202.189 296.131 201.682 296.68 200.982 297.277L199.4 298.631H203.051V300.061ZM204.434 298.08C204.141 297.4 203.994 296.609 203.994 295.707C203.994 294.805 204.146 294.008 204.451 293.316C204.756 292.625 205.189 292.088 205.752 291.705C206.314 291.322 206.965 291.131 207.703 291.131C208.441 291.131 209.092 291.322 209.654 291.705C210.221 292.088 210.656 292.625 210.961 293.316C211.27 294.008 211.424 294.805 211.424 295.707C211.424 296.609 211.275 297.4 210.979 298.08C210.686 298.76 210.258 299.289 209.695 299.668C209.133 300.043 208.469 300.23 207.703 300.23C206.938 300.23 206.273 300.043 205.711 299.668C205.152 299.289 204.727 298.76 204.434 298.08ZM205.506 295.707C205.506 296.715 205.697 297.494 206.08 298.045C206.467 298.596 207.008 298.871 207.703 298.871C208.402 298.871 208.945 298.598 209.332 298.051C209.719 297.5 209.912 296.719 209.912 295.707C209.912 294.676 209.719 293.883 209.332 293.328C208.945 292.77 208.402 292.49 207.703 292.49C207.008 292.49 206.467 292.77 206.08 293.328C205.697 293.883 205.506 294.676 205.506 295.707ZM218.578 300.061L212.49 300.072V298.918L215.361 296.498C215.959 295.99 216.371 295.564 216.598 295.221C216.828 294.873 216.943 294.49 216.943 294.072C216.943 293.576 216.814 293.193 216.557 292.924C216.303 292.65 215.943 292.514 215.479 292.514C214.998 292.514 214.617 292.674 214.336 292.994C214.055 293.311 213.912 293.75 213.908 294.312H212.385C212.389 293.352 212.672 292.584 213.234 292.01C213.801 291.432 214.549 291.143 215.479 291.143C216.416 291.143 217.156 291.396 217.699 291.904C218.242 292.408 218.514 293.104 218.514 293.99C218.514 294.58 218.354 295.127 218.033 295.631C217.717 296.131 217.209 296.68 216.51 297.277L214.928 298.631H218.578V300.061ZM222.193 295.73H221.127V294.734L223.383 292.654H219.738V291.301H225.305V292.525L223.166 294.494C223.869 294.631 224.443 294.945 224.889 295.438C225.334 295.926 225.557 296.543 225.557 297.289C225.557 297.73 225.473 298.137 225.305 298.508C225.141 298.875 224.916 299.186 224.631 299.439C224.346 299.689 224.008 299.885 223.617 300.025C223.23 300.162 222.816 300.23 222.375 300.23C221.797 300.23 221.279 300.119 220.822 299.896C220.369 299.67 220.006 299.332 219.732 298.883C219.463 298.43 219.328 297.895 219.328 297.277H220.84C220.84 297.773 220.98 298.162 221.262 298.443C221.543 298.721 221.922 298.859 222.398 298.859C222.879 298.859 223.266 298.715 223.559 298.426C223.852 298.137 223.998 297.75 223.998 297.266C223.998 296.801 223.844 296.43 223.535 296.152C223.23 295.871 222.783 295.73 222.193 295.73Z" fill="white"/>
<path d="M50.6152 357.655C50.6152 356.817 50.9229 356.142 51.5381 355.632C52.1533 355.121 52.9668 354.866 53.9785 354.866C54.8809 354.866 55.61 355.105 56.166 355.584C56.7266 356.058 57.0456 356.714 57.123 357.553H56.1045C56.0498 356.983 55.8356 356.546 55.4619 356.24C55.0928 355.93 54.5938 355.775 53.9648 355.775C53.2585 355.775 52.6911 355.946 52.2627 356.288C51.8389 356.625 51.627 357.076 51.627 357.642C51.627 358.512 52.1488 359.079 53.1924 359.344L54.915 359.768C56.501 360.15 57.2939 361.028 57.2939 362.399C57.2939 363.265 56.984 363.956 56.3643 364.471C55.7445 364.986 54.915 365.243 53.876 365.243C52.9007 365.243 52.1077 365.004 51.4971 364.525C50.8864 364.047 50.5514 363.397 50.4922 362.577H51.5244C51.5518 363.106 51.7773 363.527 52.2012 363.842C52.6296 364.156 53.1878 364.313 53.876 364.313C54.6143 364.313 55.1999 364.147 55.6328 363.814C56.0703 363.482 56.2891 363.028 56.2891 362.454C56.2891 361.543 55.7604 360.964 54.7031 360.718L53.0078 360.301C52.224 360.114 51.6292 359.797 51.2236 359.351C50.818 358.904 50.6152 358.339 50.6152 357.655ZM63.6582 358.298H64.6221V365.072H63.7812L63.6582 363.924C63.4714 364.32 63.1592 364.639 62.7217 364.881C62.2887 365.122 61.8079 365.243 61.2793 365.243C60.4954 365.243 59.887 364.997 59.4541 364.505C59.0257 364.008 58.8115 363.338 58.8115 362.495V358.284H59.7959V362.188C59.7959 363.646 60.3929 364.375 61.5869 364.375C62.2432 364.375 62.7513 364.161 63.1113 363.732C63.4759 363.304 63.6582 362.691 63.6582 361.894V358.298ZM67.4727 365.072H66.6318V354.866H67.6025V359.61C67.8395 359.123 68.1768 358.751 68.6143 358.496C69.0563 358.241 69.569 358.113 70.1523 358.113C70.7949 358.113 71.3532 358.271 71.8271 358.585C72.3057 358.899 72.6657 359.326 72.9072 359.863C73.1488 360.401 73.2695 361.012 73.2695 361.695C73.2695 362.734 72.9847 363.587 72.415 364.252C71.8499 364.913 71.0843 365.243 70.1182 365.243C69.5394 365.243 69.029 365.113 68.5869 364.854C68.1449 364.589 67.8076 364.2 67.5752 363.685L67.4727 365.072ZM67.6162 361.668C67.6162 362.465 67.8258 363.115 68.2451 363.616C68.6644 364.113 69.2386 364.361 69.9678 364.361C70.6878 364.361 71.2552 364.113 71.6699 363.616C72.0846 363.115 72.292 362.465 72.292 361.668C72.292 360.875 72.0846 360.23 71.6699 359.733C71.2552 359.232 70.6878 358.981 69.9678 358.981C69.2386 358.981 68.6644 359.232 68.2451 359.733C67.8258 360.23 67.6162 360.875 67.6162 361.668ZM74.2334 363.165H75.1631C75.1631 363.557 75.2998 363.869 75.5732 364.102C75.8512 364.329 76.2272 364.443 76.7012 364.443C77.2253 364.443 77.6331 364.339 77.9248 364.129C78.221 363.919 78.3691 363.632 78.3691 363.268C78.3691 362.98 78.2871 362.753 78.123 362.584C77.959 362.415 77.681 362.283 77.2891 362.188L76.127 361.894C74.9603 361.602 74.377 360.991 74.377 360.062C74.377 359.469 74.6003 358.997 75.0469 358.646C75.498 358.291 76.0905 358.113 76.8242 358.113C77.5397 358.113 78.1139 358.298 78.5469 358.667C78.9798 359.032 79.2054 359.528 79.2236 360.157H78.2803C78.2666 359.765 78.1299 359.46 77.8701 359.241C77.6104 359.022 77.2526 358.913 76.7969 358.913C76.3229 358.913 75.9561 359.011 75.6963 359.207C75.4411 359.403 75.3135 359.683 75.3135 360.048C75.3135 360.572 75.6826 360.925 76.4209 361.107L77.583 361.401C78.1755 361.547 78.6084 361.766 78.8818 362.058C79.1553 362.349 79.292 362.739 79.292 363.227C79.292 363.833 79.055 364.32 78.5811 364.689C78.1071 365.059 77.485 365.243 76.7148 365.243C75.9538 365.243 75.3499 365.054 74.9033 364.676C74.4567 364.298 74.2334 363.794 74.2334 363.165ZM80.4062 361.695C80.4062 360.629 80.7048 359.765 81.3018 359.104C81.9033 358.444 82.6963 358.113 83.6807 358.113C84.46 358.113 85.1185 358.323 85.6562 358.742C86.194 359.161 86.529 359.722 86.6611 360.424H85.6973C85.5742 359.968 85.3281 359.613 84.959 359.357C84.5944 359.098 84.1729 358.968 83.6943 358.968C83.0016 358.968 82.4388 359.214 82.0059 359.706C81.5729 360.198 81.3564 360.857 81.3564 361.682C81.3564 362.488 81.5638 363.14 81.9785 363.637C82.3932 364.129 82.9424 364.375 83.626 364.375C84.1273 364.375 84.5671 364.245 84.9453 363.985C85.3236 363.726 85.5788 363.379 85.7109 362.946H86.6885C86.529 363.639 86.1712 364.195 85.6152 364.614C85.0592 365.034 84.3962 365.243 83.626 365.243C82.6644 365.243 81.8874 364.917 81.2949 364.266C80.7025 363.614 80.4062 362.757 80.4062 361.695ZM91.6992 358.209V359.077H91.166C90.5462 359.077 90.0495 359.273 89.6758 359.665C89.3066 360.052 89.1221 360.567 89.1221 361.21V365.072H88.1514V358.298H89.0674L89.1357 359.344C89.2725 358.975 89.5094 358.683 89.8467 358.469C90.1885 358.25 90.5941 358.141 91.0635 358.141C91.2868 358.141 91.4987 358.163 91.6992 358.209ZM93.9688 356.22C93.8229 356.361 93.652 356.432 93.4561 356.432C93.2601 356.432 93.0915 356.363 92.9502 356.227C92.8135 356.085 92.7451 355.917 92.7451 355.721C92.7451 355.525 92.8158 355.354 92.957 355.208C93.0983 355.062 93.2646 354.989 93.4561 354.989C93.652 354.989 93.8229 355.062 93.9688 355.208C94.1146 355.354 94.1875 355.525 94.1875 355.721C94.1875 355.912 94.1146 356.078 93.9688 356.22ZM92.9775 365.072V358.298H93.9482V365.072H92.9775ZM95.958 368.025V358.298H96.7988L96.9014 359.665C97.1338 359.15 97.471 358.763 97.9131 358.503C98.3597 358.243 98.8747 358.113 99.458 358.113C100.42 358.113 101.183 358.444 101.748 359.104C102.313 359.761 102.596 360.611 102.596 361.654C102.596 362.707 102.315 363.568 101.755 364.238C101.199 364.908 100.433 365.243 99.458 365.243C98.8747 365.243 98.3665 365.12 97.9336 364.874C97.5007 364.623 97.1657 364.257 96.9287 363.773V368.025H95.958ZM96.9424 361.682C96.9424 362.475 97.152 363.122 97.5713 363.623C97.9951 364.124 98.5693 364.375 99.2939 364.375C100.014 364.375 100.581 364.124 100.996 363.623C101.411 363.122 101.618 362.475 101.618 361.682C101.618 360.884 101.411 360.237 100.996 359.74C100.581 359.243 100.014 358.995 99.2939 358.995C98.5648 358.995 97.9906 359.243 97.5713 359.74C97.152 360.237 96.9424 360.884 96.9424 361.682ZM105.624 365.072H104.674V359.111H103.313V358.298H104.674V356.151H105.624V358.298H106.978V359.111H105.624V365.072ZM109.227 356.22C109.081 356.361 108.91 356.432 108.714 356.432C108.518 356.432 108.349 356.363 108.208 356.227C108.071 356.085 108.003 355.917 108.003 355.721C108.003 355.525 108.074 355.354 108.215 355.208C108.356 355.062 108.522 354.989 108.714 354.989C108.91 354.989 109.081 355.062 109.227 355.208C109.372 355.354 109.445 355.525 109.445 355.721C109.445 355.912 109.372 356.078 109.227 356.22ZM108.235 365.072V358.298H109.206V365.072H108.235ZM110.744 361.682C110.744 360.647 111.068 359.795 111.715 359.125C112.367 358.451 113.191 358.113 114.189 358.113C115.183 358.113 116.003 358.451 116.65 359.125C117.302 359.795 117.628 360.647 117.628 361.682C117.628 362.712 117.302 363.564 116.65 364.238C116.003 364.908 115.183 365.243 114.189 365.243C113.196 365.243 112.373 364.908 111.722 364.238C111.07 363.564 110.744 362.712 110.744 361.682ZM111.722 361.668C111.722 362.465 111.95 363.117 112.405 363.623C112.866 364.124 113.46 364.375 114.189 364.375C114.91 364.375 115.5 364.124 115.96 363.623C116.42 363.117 116.65 362.465 116.65 361.668C116.65 360.884 116.42 360.242 115.96 359.74C115.5 359.234 114.91 358.981 114.189 358.981C113.465 358.981 112.872 359.234 112.412 359.74C111.952 360.242 111.722 360.884 111.722 361.668ZM120.144 365.072H119.173V358.298H120.014L120.157 359.474C120.381 359.045 120.7 358.713 121.114 358.476C121.529 358.234 121.985 358.113 122.481 358.113C123.379 358.113 124.042 358.362 124.471 358.858C124.899 359.351 125.113 360.041 125.113 360.93V365.072H124.143V361.142C124.143 360.385 123.985 359.838 123.671 359.501C123.356 359.164 122.903 358.995 122.311 358.995C121.627 358.995 121.094 359.225 120.711 359.686C120.333 360.141 120.144 360.757 120.144 361.531V365.072Z" fill="white"/>
<path d="M52.2148 407.072H51.2168V397.051H52.2148L55.8652 405.883L59.5225 397.051H60.5273V407.072H59.5361V402.314C59.5361 400.861 59.5635 399.792 59.6182 399.108L56.3574 407.072H55.3867L52.126 399.149C52.1852 399.555 52.2148 400.558 52.2148 402.157V407.072ZM65.5928 407.243C64.5993 407.243 63.7972 406.917 63.1865 406.266C62.5804 405.609 62.2773 404.748 62.2773 403.682C62.2773 402.624 62.5758 401.765 63.1729 401.104C63.7744 400.444 64.5583 400.113 65.5244 400.113C66.4404 400.113 67.1833 400.41 67.7529 401.002C68.3226 401.594 68.6074 402.371 68.6074 403.333V403.812H63.2139C63.2503 404.641 63.4759 405.284 63.8906 405.739C64.3053 406.19 64.8773 406.416 65.6064 406.416C66.7275 406.416 67.418 405.958 67.6777 405.042H68.6074C68.4251 405.757 68.0765 406.304 67.5615 406.683C67.0465 407.056 66.3903 407.243 65.5928 407.243ZM65.5244 400.94C64.8955 400.94 64.3783 401.134 63.9727 401.521C63.5716 401.909 63.3278 402.438 63.2412 403.107H67.6367C67.6367 402.456 67.443 401.932 67.0557 401.535C66.6683 401.139 66.1579 400.94 65.5244 400.94ZM69.5713 405.165H70.501C70.501 405.557 70.6377 405.869 70.9111 406.102C71.1891 406.329 71.5651 406.443 72.0391 406.443C72.5632 406.443 72.971 406.339 73.2627 406.129C73.5589 405.919 73.707 405.632 73.707 405.268C73.707 404.98 73.625 404.753 73.4609 404.584C73.2969 404.415 73.0189 404.283 72.627 404.188L71.4648 403.894C70.2982 403.602 69.7148 402.991 69.7148 402.062C69.7148 401.469 69.9382 400.997 70.3848 400.646C70.8359 400.291 71.4284 400.113 72.1621 400.113C72.8776 400.113 73.4518 400.298 73.8848 400.667C74.3177 401.032 74.5433 401.528 74.5615 402.157H73.6182C73.6045 401.765 73.4678 401.46 73.208 401.241C72.9482 401.022 72.5905 400.913 72.1348 400.913C71.6608 400.913 71.2939 401.011 71.0342 401.207C70.779 401.403 70.6514 401.683 70.6514 402.048C70.6514 402.572 71.0205 402.925 71.7588 403.107L72.9209 403.401C73.5133 403.547 73.9463 403.766 74.2197 404.058C74.4932 404.349 74.6299 404.739 74.6299 405.227C74.6299 405.833 74.3929 406.32 73.9189 406.689C73.445 407.059 72.8229 407.243 72.0527 407.243C71.2917 407.243 70.6878 407.054 70.2412 406.676C69.7946 406.298 69.5713 405.794 69.5713 405.165ZM75.6416 405.165H76.5713C76.5713 405.557 76.708 405.869 76.9814 406.102C77.2594 406.329 77.6354 406.443 78.1094 406.443C78.6335 406.443 79.0413 406.339 79.333 406.129C79.6292 405.919 79.7773 405.632 79.7773 405.268C79.7773 404.98 79.6953 404.753 79.5312 404.584C79.3672 404.415 79.0892 404.283 78.6973 404.188L77.5352 403.894C76.3685 403.602 75.7852 402.991 75.7852 402.062C75.7852 401.469 76.0085 400.997 76.4551 400.646C76.9062 400.291 77.4987 400.113 78.2324 400.113C78.9479 400.113 79.5221 400.298 79.9551 400.667C80.388 401.032 80.6136 401.528 80.6318 402.157H79.6885C79.6748 401.765 79.5381 401.46 79.2783 401.241C79.0186 401.022 78.6608 400.913 78.2051 400.913C77.7311 400.913 77.3643 401.011 77.1045 401.207C76.8493 401.403 76.7217 401.683 76.7217 402.048C76.7217 402.572 77.0908 402.925 77.8291 403.107L78.9912 403.401C79.5837 403.547 80.0166 403.766 80.29 404.058C80.5635 404.349 80.7002 404.739 80.7002 405.227C80.7002 405.833 80.4632 406.32 79.9893 406.689C79.5153 407.059 78.8932 407.243 78.123 407.243C77.362 407.243 76.7581 407.054 76.3115 406.676C75.8649 406.298 75.6416 405.794 75.6416 405.165ZM84.2344 407.243C83.5234 407.243 82.9629 407.061 82.5527 406.696C82.1426 406.327 81.9375 405.842 81.9375 405.24C81.9375 404.62 82.1608 404.121 82.6074 403.743C83.0586 403.365 83.6807 403.144 84.4736 403.08L86.7158 402.902V402.677C86.7158 401.51 86.1165 400.927 84.918 400.927C84.3301 400.927 83.8698 401.054 83.5371 401.31C83.209 401.56 83.0449 401.913 83.0449 402.369H82.1631C82.1631 401.686 82.4183 401.139 82.9287 400.729C83.4391 400.318 84.1136 400.113 84.9521 400.113C85.777 400.113 86.4355 400.327 86.9277 400.756C87.4199 401.184 87.666 401.829 87.666 402.69V407.072H86.8525L86.7295 405.883C86.5199 406.311 86.194 406.646 85.752 406.888C85.3145 407.125 84.8086 407.243 84.2344 407.243ZM84.46 406.457C85.1663 406.457 85.7178 406.234 86.1143 405.787C86.5153 405.336 86.7158 404.737 86.7158 403.989V403.627L84.7129 403.784C84.1022 403.839 83.651 403.992 83.3594 404.242C83.0677 404.493 82.9219 404.816 82.9219 405.213C82.9219 405.618 83.0586 405.928 83.332 406.143C83.61 406.352 83.986 406.457 84.46 406.457ZM89.1426 403.49C89.1426 402.87 89.2656 402.308 89.5117 401.802C89.7624 401.291 90.1315 400.883 90.6191 400.578C91.1113 400.268 91.6787 400.113 92.3213 400.113C92.9092 400.113 93.4196 400.245 93.8525 400.51C94.2855 400.774 94.609 401.155 94.8232 401.651L94.9258 400.298H95.7666V406.86C95.7666 407.868 95.4681 408.674 94.8711 409.28C94.2741 409.891 93.4788 410.196 92.4854 410.196C91.6149 410.196 90.8926 409.964 90.3184 409.499C89.7487 409.039 89.3978 408.398 89.2656 407.578H90.2363C90.3411 408.125 90.5918 408.551 90.9883 408.856C91.3893 409.162 91.8929 409.314 92.499 409.314C93.1917 409.314 93.75 409.098 94.1738 408.665C94.5977 408.237 94.8096 407.669 94.8096 406.963V405.35C94.5771 405.828 94.2376 406.2 93.791 406.464C93.3444 406.728 92.8317 406.86 92.2529 406.86C91.3141 406.86 90.5599 406.537 89.9902 405.89C89.4251 405.243 89.1426 404.443 89.1426 403.49ZM90.7217 401.686C90.3115 402.164 90.1064 402.761 90.1064 403.477C90.1064 404.192 90.3138 404.791 90.7285 405.274C91.1432 405.753 91.6969 405.992 92.3896 405.992C93.1097 405.992 93.6794 405.76 94.0986 405.295C94.5179 404.826 94.7275 404.219 94.7275 403.477C94.7275 402.734 94.5202 402.13 94.1055 401.665C93.6953 401.2 93.1279 400.968 92.4033 400.968C91.6969 400.968 91.1364 401.207 90.7217 401.686ZM100.62 407.243C99.6266 407.243 98.8245 406.917 98.2139 406.266C97.6077 405.609 97.3047 404.748 97.3047 403.682C97.3047 402.624 97.6032 401.765 98.2002 401.104C98.8018 400.444 99.5856 400.113 100.552 400.113C101.468 400.113 102.211 400.41 102.78 401.002C103.35 401.594 103.635 402.371 103.635 403.333V403.812H98.2412C98.2777 404.641 98.5033 405.284 98.918 405.739C99.3327 406.19 99.9046 406.416 100.634 406.416C101.755 406.416 102.445 405.958 102.705 405.042H103.635C103.452 405.757 103.104 406.304 102.589 406.683C102.074 407.056 101.418 407.243 100.62 407.243ZM100.552 400.94C99.9229 400.94 99.4056 401.134 99 401.521C98.599 401.909 98.3551 402.438 98.2686 403.107H102.664C102.664 402.456 102.47 401.932 102.083 401.535C101.696 401.139 101.185 400.94 100.552 400.94ZM104.599 405.165H105.528C105.528 405.557 105.665 405.869 105.938 406.102C106.216 406.329 106.592 406.443 107.066 406.443C107.59 406.443 107.998 406.339 108.29 406.129C108.586 405.919 108.734 405.632 108.734 405.268C108.734 404.98 108.652 404.753 108.488 404.584C108.324 404.415 108.046 404.283 107.654 404.188L106.492 403.894C105.326 403.602 104.742 402.991 104.742 402.062C104.742 401.469 104.965 400.997 105.412 400.646C105.863 400.291 106.456 400.113 107.189 400.113C107.905 400.113 108.479 400.298 108.912 400.667C109.345 401.032 109.571 401.528 109.589 402.157H108.646C108.632 401.765 108.495 401.46 108.235 401.241C107.976 401.022 107.618 400.913 107.162 400.913C106.688 400.913 106.321 401.011 106.062 401.207C105.806 401.403 105.679 401.683 105.679 402.048C105.679 402.572 106.048 402.925 106.786 403.107L107.948 403.401C108.541 403.547 108.974 403.766 109.247 404.058C109.521 404.349 109.657 404.739 109.657 405.227C109.657 405.833 109.42 406.32 108.946 406.689C108.472 407.059 107.85 407.243 107.08 407.243C106.319 407.243 105.715 407.054 105.269 406.676C104.822 406.298 104.599 405.794 104.599 405.165Z" fill="white"/>
<path d="M241.826 366.46V365.229C240.942 365.179 240.224 364.917 239.673 364.443C239.121 363.965 238.818 363.343 238.764 362.577H239.796C239.823 363.065 240.017 363.466 240.377 363.78C240.742 364.09 241.225 364.268 241.826 364.313V360.424L241.279 360.287C239.684 359.904 238.887 359.027 238.887 357.655C238.887 356.881 239.153 356.243 239.687 355.741C240.224 355.235 240.938 354.948 241.826 354.88V353.663H242.571V354.88C243.387 354.935 244.043 355.197 244.54 355.666C245.041 356.135 245.326 356.764 245.395 357.553H244.39C244.344 357.029 244.164 356.616 243.85 356.315C243.54 356.01 243.114 355.83 242.571 355.775V359.624L243.187 359.781C244.772 360.173 245.565 361.046 245.565 362.399C245.565 363.206 245.297 363.862 244.759 364.368C244.221 364.874 243.492 365.161 242.571 365.229V366.46H241.826ZM241.464 359.357L241.826 359.446V355.789C241.229 355.853 240.755 356.051 240.404 356.384C240.058 356.712 239.885 357.131 239.885 357.642C239.885 358.521 240.411 359.093 241.464 359.357ZM242.975 360.704L242.571 360.608V364.313C243.191 364.25 243.679 364.054 244.034 363.726C244.394 363.393 244.574 362.969 244.574 362.454C244.574 361.538 244.041 360.955 242.975 360.704ZM257.282 365.072H250.672V364.272L253.878 361.477C254.808 360.665 255.427 360.027 255.737 359.562C256.047 359.098 256.202 358.569 256.202 357.977C256.202 357.298 256.011 356.764 255.628 356.377C255.25 355.985 254.728 355.789 254.062 355.789C253.37 355.789 252.812 356.021 252.388 356.486C251.968 356.951 251.747 357.573 251.725 358.353H250.713C250.74 357.304 251.059 356.461 251.67 355.823C252.285 355.185 253.087 354.866 254.076 354.866C255.02 354.866 255.781 355.146 256.359 355.707C256.938 356.263 257.228 356.999 257.228 357.915C257.228 358.635 257.036 359.291 256.653 359.884C256.275 360.472 255.58 361.208 254.568 362.092L252.224 364.136H257.282V365.072ZM260.468 355.96H258.424V355.051H261.432V365.072H260.468V355.96ZM265.321 364.594C265.321 365.027 265.173 365.41 264.877 365.742C264.581 366.079 264.216 366.28 263.783 366.344V365.831C264.034 365.79 264.241 365.688 264.405 365.523C264.569 365.364 264.651 365.186 264.651 364.99C264.556 365.054 264.435 365.086 264.289 365.086C264.084 365.086 263.911 365.018 263.77 364.881C263.628 364.744 263.558 364.56 263.558 364.327C263.558 364.081 263.633 363.881 263.783 363.726C263.938 363.571 264.139 363.493 264.385 363.493C264.649 363.493 264.87 363.593 265.048 363.794C265.23 363.99 265.321 364.257 265.321 364.594ZM266.401 360.062C266.401 359.027 266.561 358.118 266.88 357.334C267.199 356.55 267.661 355.942 268.268 355.509C268.878 355.071 269.594 354.853 270.414 354.853C271.64 354.853 272.613 355.329 273.333 356.281C274.058 357.234 274.42 358.494 274.42 360.062C274.42 361.101 274.26 362.012 273.941 362.796C273.627 363.575 273.167 364.181 272.561 364.614C271.954 365.043 271.239 365.257 270.414 365.257C269.585 365.257 268.865 365.043 268.254 364.614C267.648 364.181 267.188 363.575 266.873 362.796C266.559 362.012 266.401 361.101 266.401 360.062ZM267.393 360.062C267.393 361.379 267.657 362.422 268.186 363.192C268.719 363.963 269.462 364.348 270.414 364.348C271.367 364.348 272.109 363.963 272.643 363.192C273.176 362.422 273.442 361.379 273.442 360.062C273.442 358.74 273.176 357.696 272.643 356.931C272.109 356.16 271.367 355.775 270.414 355.775C269.462 355.775 268.719 356.16 268.186 356.931C267.657 357.696 267.393 358.74 267.393 360.062ZM278.617 359.699H277.817V358.995L280.914 355.946H276.115V355.051H282.186V355.857L279.191 358.845C280.144 358.895 280.919 359.2 281.516 359.761C282.113 360.321 282.411 361.05 282.411 361.948C282.411 362.933 282.085 363.728 281.434 364.334C280.786 364.94 279.95 365.243 278.925 365.243C277.927 365.243 277.127 364.956 276.525 364.382C275.924 363.803 275.623 363.017 275.623 362.023H276.614C276.614 362.739 276.822 363.302 277.236 363.712C277.651 364.122 278.214 364.327 278.925 364.327C279.672 364.327 280.269 364.108 280.716 363.671C281.167 363.233 281.393 362.65 281.393 361.921C281.393 361.228 281.151 360.686 280.668 360.294C280.189 359.897 279.506 359.699 278.617 359.699ZM285.433 355.96H283.389V355.051H286.396V365.072H285.433V355.96ZM290.026 364.977C289.853 365.145 289.646 365.229 289.404 365.229C289.163 365.229 288.955 365.145 288.782 364.977C288.609 364.808 288.522 364.607 288.522 364.375C288.522 364.138 288.609 363.933 288.782 363.76C288.96 363.582 289.167 363.493 289.404 363.493C289.641 363.493 289.846 363.582 290.02 363.76C290.197 363.933 290.286 364.138 290.286 364.375C290.286 364.607 290.2 364.808 290.026 364.977ZM294.436 359.699H293.636V358.995L296.732 355.946H291.934V355.051H298.004V355.857L295.01 358.845C295.962 358.895 296.737 359.2 297.334 359.761C297.931 360.321 298.229 361.05 298.229 361.948C298.229 362.933 297.904 363.728 297.252 364.334C296.605 364.94 295.769 365.243 294.743 365.243C293.745 365.243 292.945 364.956 292.344 364.382C291.742 363.803 291.441 363.017 291.441 362.023H292.433C292.433 362.739 292.64 363.302 293.055 363.712C293.469 364.122 294.032 364.327 294.743 364.327C295.491 364.327 296.088 364.108 296.534 363.671C296.985 363.233 297.211 362.65 297.211 361.921C297.211 361.228 296.969 360.686 296.486 360.294C296.008 359.897 295.324 359.699 294.436 359.699ZM302.898 365.243C301.891 365.243 301.089 364.951 300.492 364.368C299.895 363.78 299.597 362.992 299.597 362.003H300.602C300.602 362.723 300.807 363.288 301.217 363.698C301.632 364.108 302.197 364.313 302.912 364.313C303.664 364.313 304.268 364.086 304.724 363.63C305.179 363.17 305.407 362.568 305.407 361.825C305.407 361.101 305.184 360.501 304.737 360.027C304.291 359.553 303.682 359.316 302.912 359.316C302.465 359.316 302.039 359.41 301.634 359.597C301.228 359.784 300.884 360.032 300.602 360.342L299.802 360.089L301.005 355.051H305.852V355.974H301.736L300.978 359.125C301.561 358.656 302.251 358.421 303.049 358.421C304.065 358.421 304.881 358.744 305.496 359.392C306.116 360.034 306.426 360.836 306.426 361.798C306.426 362.81 306.098 363.637 305.441 364.279C304.79 364.922 303.942 365.243 302.898 365.243Z" fill="white"/>
<path d="M237.971 408.46V407.229C237.087 407.179 236.369 406.917 235.817 406.443C235.266 405.965 234.963 405.343 234.908 404.577H235.94C235.968 405.065 236.161 405.466 236.521 405.78C236.886 406.09 237.369 406.268 237.971 406.313V402.424L237.424 402.287C235.829 401.904 235.031 401.027 235.031 399.655C235.031 398.881 235.298 398.243 235.831 397.741C236.369 397.235 237.082 396.948 237.971 396.88V395.663H238.716V396.88C239.532 396.935 240.188 397.197 240.685 397.666C241.186 398.135 241.471 398.764 241.539 399.553H240.534C240.489 399.029 240.309 398.616 239.994 398.315C239.684 398.01 239.258 397.83 238.716 397.775V401.624L239.331 401.781C240.917 402.173 241.71 403.046 241.71 404.399C241.71 405.206 241.441 405.862 240.903 406.368C240.366 406.874 239.636 407.161 238.716 407.229V408.46H237.971ZM237.608 401.357L237.971 401.446V397.789C237.374 397.853 236.9 398.051 236.549 398.384C236.202 398.712 236.029 399.131 236.029 399.642C236.029 400.521 236.556 401.093 237.608 401.357ZM239.119 402.704L238.716 402.608V406.313C239.336 406.25 239.823 406.054 240.179 405.726C240.539 405.393 240.719 404.969 240.719 404.454C240.719 403.538 240.186 402.955 239.119 402.704ZM244.212 400.421L246.714 397.051H247.89L245.258 400.537C245.714 400.309 246.172 400.195 246.632 400.195C247.657 400.195 248.491 400.528 249.134 401.193C249.781 401.854 250.104 402.684 250.104 403.682C250.104 404.702 249.763 405.552 249.079 406.231C248.4 406.906 247.557 407.243 246.55 407.243C245.889 407.243 245.283 407.088 244.731 406.778C244.18 406.464 243.745 406.033 243.426 405.486C243.107 404.939 242.947 404.338 242.947 403.682C242.947 403.103 243.038 402.576 243.221 402.103C243.408 401.629 243.738 401.068 244.212 400.421ZM244.69 401.815C244.212 402.303 243.973 402.93 243.973 403.695C243.973 404.461 244.212 405.092 244.69 405.589C245.174 406.081 245.793 406.327 246.55 406.327C247.288 406.327 247.896 406.081 248.375 405.589C248.854 405.092 249.093 404.461 249.093 403.695C249.093 402.934 248.854 402.308 248.375 401.815C247.901 401.323 247.293 401.077 246.55 401.077C245.789 401.077 245.169 401.323 244.69 401.815ZM258.718 404.946H257.542V407.072H256.564V404.946H251.301V404.051L256.202 397.051H257.542V404.051H258.718V404.946ZM252.395 404.051H256.564V398.083L252.395 404.051ZM261.862 406.594C261.862 407.027 261.714 407.41 261.418 407.742C261.122 408.079 260.757 408.28 260.324 408.344V407.831C260.575 407.79 260.782 407.688 260.946 407.523C261.11 407.364 261.192 407.186 261.192 406.99C261.097 407.054 260.976 407.086 260.83 407.086C260.625 407.086 260.452 407.018 260.311 406.881C260.169 406.744 260.099 406.56 260.099 406.327C260.099 406.081 260.174 405.881 260.324 405.726C260.479 405.571 260.68 405.493 260.926 405.493C261.19 405.493 261.411 405.593 261.589 405.794C261.771 405.99 261.862 406.257 261.862 406.594ZM270.052 407.072H263.441V406.272L266.647 403.477C267.577 402.665 268.197 402.027 268.507 401.562C268.817 401.098 268.972 400.569 268.972 399.977C268.972 399.298 268.78 398.764 268.397 398.377C268.019 397.985 267.497 397.789 266.832 397.789C266.139 397.789 265.581 398.021 265.157 398.486C264.738 398.951 264.517 399.573 264.494 400.353H263.482C263.51 399.304 263.829 398.461 264.439 397.823C265.055 397.185 265.857 396.866 266.846 396.866C267.789 396.866 268.55 397.146 269.129 397.707C269.708 398.263 269.997 398.999 269.997 399.915C269.997 400.635 269.806 401.291 269.423 401.884C269.045 402.472 268.35 403.208 267.338 404.092L264.993 406.136H270.052V407.072ZM274.242 401.699H273.442V400.995L276.539 397.946H271.74V397.051H277.811V397.857L274.816 400.845C275.769 400.895 276.544 401.2 277.141 401.761C277.738 402.321 278.036 403.05 278.036 403.948C278.036 404.933 277.71 405.728 277.059 406.334C276.411 406.94 275.575 407.243 274.55 407.243C273.552 407.243 272.752 406.956 272.15 406.382C271.549 405.803 271.248 405.017 271.248 404.023H272.239C272.239 404.739 272.447 405.302 272.861 405.712C273.276 406.122 273.839 406.327 274.55 406.327C275.297 406.327 275.894 406.108 276.341 405.671C276.792 405.233 277.018 404.65 277.018 403.921C277.018 403.228 276.776 402.686 276.293 402.294C275.814 401.897 275.131 401.699 274.242 401.699ZM282.281 401.699H281.481V400.995L284.578 397.946H279.779V397.051H285.85V397.857L282.855 400.845C283.808 400.895 284.583 401.2 285.18 401.761C285.777 402.321 286.075 403.05 286.075 403.948C286.075 404.933 285.749 405.728 285.098 406.334C284.451 406.94 283.614 407.243 282.589 407.243C281.591 407.243 280.791 406.956 280.189 406.382C279.588 405.803 279.287 405.017 279.287 404.023H280.278C280.278 404.739 280.486 405.302 280.9 405.712C281.315 406.122 281.878 406.327 282.589 406.327C283.336 406.327 283.933 406.108 284.38 405.671C284.831 405.233 285.057 404.65 285.057 403.921C285.057 403.228 284.815 402.686 284.332 402.294C283.854 401.897 283.17 401.699 282.281 401.699ZM288.81 406.977C288.636 407.145 288.429 407.229 288.188 407.229C287.946 407.229 287.739 407.145 287.565 406.977C287.392 406.808 287.306 406.607 287.306 406.375C287.306 406.138 287.392 405.933 287.565 405.76C287.743 405.582 287.951 405.493 288.188 405.493C288.424 405.493 288.63 405.582 288.803 405.76C288.98 405.933 289.069 406.138 289.069 406.375C289.069 406.607 288.983 406.808 288.81 406.977ZM297.655 404.946H296.479V407.072H295.502V404.946H290.238V404.051L295.14 397.051H296.479V404.051H297.655V404.946ZM291.332 404.051H295.502V398.083L291.332 404.051ZM306.2 404.946H305.024V407.072H304.047V404.946H298.783V404.051L303.685 397.051H305.024V404.051H306.2V404.946ZM299.877 404.051H304.047V398.083L299.877 404.051Z" fill="white"/>
<g filter="url(#filter0_d_1_2)">
<rect x="261" y="9.07227" width="250" height="297" rx="15" fill="#0B0B0B"/>
</g>
<rect x="270" y="236.072" width="230" height="57" rx="17" fill="#FF69B3" fill-opacity="0.35"/>
<path d="M315.212 249.58V248.225H323.203V249.58H319.951V259.072H318.479V249.58H315.212ZM325.854 259.058H324.441V248.035H325.854V252.861C326.094 252.451 326.428 252.126 326.858 251.887C327.292 251.648 327.788 251.528 328.345 251.528C329.263 251.528 329.954 251.799 330.417 252.341C330.886 252.878 331.121 253.628 331.121 254.59V259.072H329.707V254.905C329.707 254.192 329.551 253.667 329.238 253.33C328.931 252.988 328.501 252.817 327.949 252.817C327.29 252.817 326.775 253.03 326.404 253.455C326.038 253.875 325.854 254.412 325.854 255.066V259.058ZM336.233 259.255C335.154 259.255 334.277 258.899 333.604 258.186C332.93 257.473 332.593 256.548 332.593 255.41C332.593 254.263 332.922 253.33 333.582 252.612C334.246 251.89 335.11 251.528 336.174 251.528C337.219 251.528 338.054 251.858 338.679 252.517C339.309 253.176 339.624 254.05 339.624 255.139V255.667L333.955 255.681C334.009 256.458 334.233 257.053 334.629 257.468C335.024 257.878 335.569 258.083 336.262 258.083C337.385 258.083 338.071 257.654 338.32 256.794H339.639C339.458 257.581 339.072 258.188 338.481 258.618C337.891 259.043 337.141 259.255 336.233 259.255ZM336.174 252.715C335.559 252.715 335.063 252.891 334.688 253.242C334.312 253.594 334.077 254.092 333.984 254.736H338.218C338.218 254.126 338.032 253.638 337.661 253.271C337.29 252.9 336.794 252.715 336.174 252.715ZM346.714 259.072H345.3V251.741H346.56L346.699 252.7C346.895 252.344 347.183 252.061 347.563 251.851C347.944 251.636 348.386 251.528 348.889 251.528C349.451 251.528 349.929 251.66 350.325 251.924C350.725 252.183 351.021 252.546 351.211 253.015C351.382 252.556 351.677 252.195 352.097 251.931C352.522 251.663 353.018 251.528 353.584 251.528C354.419 251.528 355.076 251.775 355.554 252.268C356.038 252.756 356.279 253.425 356.279 254.275V259.072H354.902V254.619C354.902 254.048 354.756 253.604 354.463 253.286C354.17 252.964 353.772 252.803 353.269 252.803C352.737 252.803 352.307 252.979 351.98 253.33C351.658 253.677 351.497 254.141 351.497 254.722V259.072H350.105V254.604C350.105 254.033 349.958 253.594 349.666 253.286C349.377 252.974 348.982 252.817 348.479 252.817C347.947 252.817 347.52 252.991 347.197 253.337C346.875 253.679 346.714 254.141 346.714 254.722V259.072ZM358.835 258.171C358.118 257.449 357.759 256.523 357.759 255.396C357.759 254.268 358.118 253.345 358.835 252.627C359.558 251.904 360.474 251.543 361.582 251.543C362.681 251.543 363.589 251.904 364.307 252.627C365.029 253.345 365.391 254.268 365.391 255.396C365.391 256.523 365.029 257.449 364.307 258.171C363.589 258.894 362.681 259.255 361.582 259.255C360.474 259.255 359.558 258.894 358.835 258.171ZM359.846 253.528C359.402 254.006 359.18 254.629 359.18 255.396C359.18 256.162 359.402 256.787 359.846 257.271C360.291 257.754 360.869 257.996 361.582 257.996C362.29 257.996 362.866 257.754 363.311 257.271C363.76 256.787 363.984 256.162 363.984 255.396C363.984 254.629 363.76 254.006 363.311 253.528C362.866 253.044 362.29 252.803 361.582 252.803C360.869 252.803 360.291 253.044 359.846 253.528ZM368.364 259.072H366.951V251.741H368.225L368.379 252.861C368.608 252.446 368.94 252.122 369.375 251.887C369.81 251.648 370.288 251.528 370.811 251.528C371.753 251.528 372.458 251.797 372.927 252.334C373.396 252.871 373.63 253.623 373.63 254.59V259.072H372.217V254.905C372.217 253.513 371.626 252.817 370.444 252.817C369.795 252.817 369.285 253.032 368.914 253.462C368.547 253.892 368.364 254.468 368.364 255.19V259.072ZM378.743 259.255C377.664 259.255 376.787 258.899 376.113 258.186C375.439 257.473 375.103 256.548 375.103 255.41C375.103 254.263 375.432 253.33 376.091 252.612C376.755 251.89 377.62 251.528 378.684 251.528C379.729 251.528 380.564 251.858 381.189 252.517C381.819 253.176 382.134 254.05 382.134 255.139V255.667L376.465 255.681C376.519 256.458 376.743 257.053 377.139 257.468C377.534 257.878 378.079 258.083 378.772 258.083C379.895 258.083 380.581 257.654 380.83 256.794H382.148C381.968 257.581 381.582 258.188 380.991 258.618C380.4 259.043 379.651 259.255 378.743 259.255ZM378.684 252.715C378.069 252.715 377.573 252.891 377.197 253.242C376.821 253.594 376.587 254.092 376.494 254.736H380.728C380.728 254.126 380.542 253.638 380.171 253.271C379.8 252.9 379.304 252.715 378.684 252.715ZM382.786 262.361V261.204H383.73C383.882 261.204 384.011 261.196 384.119 261.182C384.231 261.172 384.348 261.147 384.47 261.108C384.592 261.069 384.697 261.013 384.785 260.94C384.878 260.867 384.968 260.764 385.056 260.632C385.144 260.505 385.222 260.352 385.291 260.171L385.547 259.46L382.588 251.741H384.075L386.206 257.644L388.381 251.741H389.839L386.367 260.72C386.118 261.345 385.806 261.799 385.43 262.083C385.054 262.366 384.583 262.507 384.016 262.507C383.611 262.507 383.201 262.458 382.786 262.361ZM396.409 249.727C396.228 249.907 396.008 249.998 395.75 249.998C395.491 249.998 395.271 249.907 395.09 249.727C394.91 249.541 394.819 249.321 394.819 249.067C394.819 248.804 394.91 248.584 395.09 248.408C395.271 248.228 395.491 248.137 395.75 248.137C396.008 248.137 396.228 248.228 396.409 248.408C396.589 248.584 396.68 248.804 396.68 249.067C396.68 249.321 396.589 249.541 396.409 249.727ZM395.061 259.072V251.741H396.475V259.072H395.061ZM397.917 256.941H399.272C399.272 257.317 399.404 257.612 399.668 257.827C399.937 258.037 400.303 258.142 400.767 258.142C401.26 258.142 401.643 258.047 401.917 257.856C402.19 257.666 402.327 257.402 402.327 257.065C402.327 256.807 402.251 256.602 402.1 256.45C401.953 256.294 401.694 256.167 401.323 256.069L400.034 255.769C399.38 255.613 398.896 255.369 398.584 255.037C398.271 254.705 398.115 254.27 398.115 253.733C398.115 253.064 398.372 252.529 398.884 252.129C399.397 251.729 400.061 251.528 400.876 251.528C401.677 251.528 402.319 251.736 402.803 252.151C403.291 252.566 403.542 253.123 403.557 253.821H402.209C402.195 253.45 402.068 253.157 401.829 252.942C401.589 252.727 401.257 252.62 400.833 252.62C400.393 252.62 400.051 252.715 399.807 252.905C399.568 253.091 399.448 253.352 399.448 253.689C399.448 254.172 399.81 254.507 400.532 254.692L401.821 255.007C402.456 255.159 402.925 255.391 403.228 255.703C403.53 256.011 403.682 256.433 403.682 256.97C403.682 257.664 403.411 258.218 402.869 258.633C402.327 259.048 401.616 259.255 400.737 259.255C399.878 259.255 399.192 259.045 398.679 258.625C398.171 258.201 397.917 257.639 397.917 256.941ZM409.944 258.171C409.226 257.449 408.867 256.523 408.867 255.396C408.867 254.268 409.226 253.345 409.944 252.627C410.667 251.904 411.582 251.543 412.69 251.543C413.789 251.543 414.697 251.904 415.415 252.627C416.138 253.345 416.499 254.268 416.499 255.396C416.499 256.523 416.138 257.449 415.415 258.171C414.697 258.894 413.789 259.255 412.69 259.255C411.582 259.255 410.667 258.894 409.944 258.171ZM410.955 253.528C410.51 254.006 410.288 254.629 410.288 255.396C410.288 256.162 410.51 256.787 410.955 257.271C411.399 257.754 411.978 257.996 412.69 257.996C413.398 257.996 413.975 257.754 414.419 257.271C414.868 256.787 415.093 256.162 415.093 255.396C415.093 254.629 414.868 254.006 414.419 253.528C413.975 253.044 413.398 252.803 412.69 252.803C411.978 252.803 411.399 253.044 410.955 253.528ZM419.473 259.072H418.059V251.741H419.333L419.487 252.861C419.717 252.446 420.049 252.122 420.483 251.887C420.918 251.648 421.396 251.528 421.919 251.528C422.861 251.528 423.567 251.797 424.036 252.334C424.504 252.871 424.739 253.623 424.739 254.59V259.072H423.325V254.905C423.325 253.513 422.734 252.817 421.553 252.817C420.903 252.817 420.393 253.032 420.022 253.462C419.656 253.892 419.473 254.468 419.473 255.19V259.072ZM434.993 251.675V252.964H434.363C433.694 252.964 433.167 253.159 432.781 253.55C432.395 253.94 432.202 254.487 432.202 255.19V259.072H430.789V251.755H432.107L432.202 252.861C432.354 252.471 432.607 252.161 432.964 251.931C433.32 251.702 433.745 251.587 434.238 251.587C434.453 251.587 434.705 251.616 434.993 251.675ZM436.633 258.171C435.916 257.449 435.557 256.523 435.557 255.396C435.557 254.268 435.916 253.345 436.633 252.627C437.356 251.904 438.271 251.543 439.38 251.543C440.479 251.543 441.387 251.904 442.104 252.627C442.827 253.345 443.188 254.268 443.188 255.396C443.188 256.523 442.827 257.449 442.104 258.171C441.387 258.894 440.479 259.255 439.38 259.255C438.271 259.255 437.356 258.894 436.633 258.171ZM437.644 253.528C437.2 254.006 436.978 254.629 436.978 255.396C436.978 256.162 437.2 256.787 437.644 257.271C438.088 257.754 438.667 257.996 439.38 257.996C440.088 257.996 440.664 257.754 441.108 257.271C441.558 256.787 441.782 256.162 441.782 255.396C441.782 254.629 441.558 254.006 441.108 253.528C440.664 253.044 440.088 252.803 439.38 252.803C438.667 252.803 438.088 253.044 437.644 253.528ZM449.626 251.741H451.025V259.072H449.766L449.612 257.959C449.402 258.345 449.07 258.657 448.616 258.896C448.167 259.136 447.676 259.255 447.144 259.255C446.299 259.255 445.642 258.992 445.173 258.464C444.705 257.932 444.47 257.209 444.47 256.296V251.741H445.876V255.835C445.876 257.285 446.462 258.01 447.634 258.01C448.279 258.01 448.772 257.808 449.114 257.402C449.456 256.992 449.626 256.394 449.626 255.608V251.741ZM455.142 259.072H453.728V252.92H452.292V251.741H453.728V249.441H455.142V251.741H456.577V252.92H455.142V259.072ZM460.935 259.255C459.856 259.255 458.979 258.899 458.306 258.186C457.632 257.473 457.295 256.548 457.295 255.41C457.295 254.263 457.625 253.33 458.284 252.612C458.948 251.89 459.812 251.528 460.876 251.528C461.921 251.528 462.756 251.858 463.381 252.517C464.011 253.176 464.326 254.05 464.326 255.139V255.667L458.657 255.681C458.711 256.458 458.936 257.053 459.331 257.468C459.727 257.878 460.271 258.083 460.964 258.083C462.087 258.083 462.773 257.654 463.022 256.794H464.341C464.16 257.581 463.774 258.188 463.184 258.618C462.593 259.043 461.843 259.255 460.935 259.255ZM460.876 252.715C460.261 252.715 459.766 252.891 459.39 253.242C459.014 253.594 458.779 254.092 458.687 254.736H462.92C462.92 254.126 462.734 253.638 462.363 253.271C461.992 252.9 461.497 252.715 460.876 252.715ZM318.091 277.072H316.677V270.92H315.242V269.741H316.677V267.441H318.091V269.741H319.526V270.92H318.091V277.072ZM321.321 276.171C320.603 275.449 320.244 274.523 320.244 273.396C320.244 272.268 320.603 271.345 321.321 270.627C322.043 269.904 322.959 269.543 324.067 269.543C325.166 269.543 326.074 269.904 326.792 270.627C327.515 271.345 327.876 272.268 327.876 273.396C327.876 274.523 327.515 275.449 326.792 276.171C326.074 276.894 325.166 277.255 324.067 277.255C322.959 277.255 322.043 276.894 321.321 276.171ZM322.332 271.528C321.887 272.006 321.665 272.629 321.665 273.396C321.665 274.162 321.887 274.787 322.332 275.271C322.776 275.754 323.354 275.996 324.067 275.996C324.775 275.996 325.352 275.754 325.796 275.271C326.245 274.787 326.47 274.162 326.47 273.396C326.47 272.629 326.245 272.006 325.796 271.528C325.352 271.044 324.775 270.803 324.067 270.803C323.354 270.803 322.776 271.044 322.332 271.528ZM332.834 280.361V279.204H333.779C333.931 279.204 334.06 279.196 334.167 279.182C334.28 279.172 334.397 279.147 334.519 279.108C334.641 279.069 334.746 279.013 334.834 278.94C334.927 278.867 335.017 278.764 335.105 278.632C335.193 278.505 335.271 278.352 335.339 278.171L335.596 277.46L332.637 269.741H334.124L336.255 275.644L338.43 269.741H339.888L336.416 278.72C336.167 279.345 335.854 279.799 335.479 280.083C335.103 280.366 334.631 280.507 334.065 280.507C333.66 280.507 333.25 280.458 332.834 280.361ZM341.316 276.171C340.598 275.449 340.239 274.523 340.239 273.396C340.239 272.268 340.598 271.345 341.316 270.627C342.039 269.904 342.954 269.543 344.062 269.543C345.161 269.543 346.069 269.904 346.787 270.627C347.51 271.345 347.871 272.268 347.871 273.396C347.871 274.523 347.51 275.449 346.787 276.171C346.069 276.894 345.161 277.255 344.062 277.255C342.954 277.255 342.039 276.894 341.316 276.171ZM342.327 271.528C341.882 272.006 341.66 272.629 341.66 273.396C341.66 274.162 341.882 274.787 342.327 275.271C342.771 275.754 343.35 275.996 344.062 275.996C344.771 275.996 345.347 275.754 345.791 275.271C346.24 274.787 346.465 274.162 346.465 273.396C346.465 272.629 346.24 272.006 345.791 271.528C345.347 271.044 344.771 270.803 344.062 270.803C343.35 270.803 342.771 271.044 342.327 271.528ZM354.309 269.741H355.708V277.072H354.448L354.294 275.959C354.084 276.345 353.752 276.657 353.298 276.896C352.849 277.136 352.358 277.255 351.826 277.255C350.981 277.255 350.325 276.992 349.856 276.464C349.387 275.932 349.153 275.209 349.153 274.296V269.741H350.559V273.835C350.559 275.285 351.145 276.01 352.317 276.01C352.961 276.01 353.455 275.808 353.796 275.402C354.138 274.992 354.309 274.394 354.309 273.608V269.741ZM361.956 269.675V270.964H361.326C360.657 270.964 360.129 271.159 359.744 271.55C359.358 271.94 359.165 272.487 359.165 273.19V277.072H357.751V269.755H359.07L359.165 270.861C359.316 270.471 359.57 270.161 359.927 269.931C360.283 269.702 360.708 269.587 361.201 269.587C361.416 269.587 361.667 269.616 361.956 269.675ZM368.65 277.072H367.375V266.035H368.789V271C369.028 270.527 369.38 270.163 369.844 269.909C370.312 269.655 370.85 269.528 371.455 269.528C372.485 269.528 373.303 269.892 373.909 270.62C374.514 271.347 374.817 272.287 374.817 273.439C374.817 274.567 374.504 275.485 373.879 276.193C373.254 276.901 372.417 277.255 371.367 277.255C370.776 277.255 370.254 277.126 369.8 276.867C369.346 276.608 368.999 276.232 368.76 275.739L368.65 277.072ZM368.804 273.381C368.804 274.157 369.009 274.785 369.419 275.263C369.834 275.737 370.398 275.974 371.111 275.974C371.819 275.974 372.378 275.734 372.788 275.256C373.203 274.777 373.411 274.152 373.411 273.381C373.411 272.614 373.203 271.994 372.788 271.521C372.378 271.042 371.819 270.803 371.111 270.803C370.403 270.803 369.841 271.042 369.426 271.521C369.011 271.994 368.804 272.614 368.804 273.381ZM378.516 277.255C377.739 277.255 377.126 277.053 376.677 276.647C376.233 276.242 376.011 275.703 376.011 275.029C376.011 274.355 376.25 273.818 376.729 273.417C377.207 273.012 377.878 272.775 378.743 272.707L381.05 272.524V272.319C381.05 271.733 380.896 271.308 380.588 271.044C380.281 270.781 379.861 270.649 379.329 270.649C378.738 270.649 378.279 270.773 377.952 271.022C377.629 271.271 377.468 271.618 377.468 272.062H376.238C376.238 271.301 376.526 270.688 377.102 270.224C377.678 269.76 378.44 269.528 379.387 269.528C380.325 269.528 381.067 269.777 381.614 270.275C382.161 270.773 382.434 271.503 382.434 272.465V277.072H381.233L381.079 275.886C380.894 276.306 380.569 276.64 380.105 276.889C379.641 277.133 379.111 277.255 378.516 277.255ZM378.918 276.157C379.583 276.157 380.105 275.954 380.486 275.549C380.872 275.144 381.064 274.597 381.064 273.908V273.52L379.189 273.667C378.022 273.774 377.439 274.213 377.439 274.985C377.439 275.366 377.568 275.656 377.827 275.856C378.091 276.057 378.455 276.157 378.918 276.157ZM385.796 277.072H384.382V269.741H385.657L385.811 270.861C386.04 270.446 386.372 270.122 386.807 269.887C387.241 269.648 387.72 269.528 388.242 269.528C389.185 269.528 389.89 269.797 390.359 270.334C390.828 270.871 391.062 271.623 391.062 272.59V277.072H389.648V272.905C389.648 271.513 389.058 270.817 387.876 270.817C387.227 270.817 386.716 271.032 386.345 271.462C385.979 271.892 385.796 272.468 385.796 273.19V277.072ZM394.453 277.072H393.04V266.035H394.453V273.19L397.705 269.741H399.478L396.672 272.663L399.463 277.072H397.844L395.698 273.681L394.453 274.985V277.072ZM402.356 273.82H401.257C401.086 272.502 401.001 270.81 401.001 268.745V266.225H402.627V268.745C402.627 270.756 402.537 272.448 402.356 273.82ZM401.814 277.285C401.516 277.285 401.262 277.18 401.052 276.97C400.842 276.76 400.737 276.508 400.737 276.215C400.737 275.922 400.842 275.673 401.052 275.468C401.262 275.258 401.516 275.153 401.814 275.153C402.102 275.153 402.351 275.258 402.561 275.468C402.771 275.673 402.876 275.922 402.876 276.215C402.876 276.508 402.771 276.76 402.561 276.97C402.351 277.18 402.102 277.285 401.814 277.285Z" fill="white"/>
<path d="M330.242 171.357C330.242 169.92 330.77 168.764 331.824 167.889C332.879 167.014 334.273 166.576 336.008 166.576C337.555 166.576 338.805 166.986 339.758 167.807C340.719 168.619 341.266 169.744 341.398 171.182H339.652C339.559 170.205 339.191 169.455 338.551 168.932C337.918 168.4 337.062 168.135 335.984 168.135C334.773 168.135 333.801 168.428 333.066 169.014C332.34 169.592 331.977 170.365 331.977 171.334C331.977 172.826 332.871 173.799 334.66 174.252L337.613 174.979C340.332 175.635 341.691 177.139 341.691 179.49C341.691 180.975 341.16 182.158 340.098 183.041C339.035 183.924 337.613 184.365 335.832 184.365C334.16 184.365 332.801 183.955 331.754 183.135C330.707 182.314 330.133 181.201 330.031 179.795H331.801C331.848 180.701 332.234 181.424 332.961 181.963C333.695 182.502 334.652 182.771 335.832 182.771C337.098 182.771 338.102 182.486 338.844 181.916C339.594 181.346 339.969 180.568 339.969 179.584C339.969 178.021 339.062 177.029 337.25 176.607L334.344 175.893C333 175.572 331.98 175.029 331.285 174.264C330.59 173.498 330.242 172.529 330.242 171.357ZM352.602 172.459H354.254V184.072H352.812L352.602 182.104C352.281 182.783 351.746 183.33 350.996 183.744C350.254 184.158 349.43 184.365 348.523 184.365C347.18 184.365 346.137 183.943 345.395 183.1C344.66 182.248 344.293 181.1 344.293 179.654V172.436H345.98V179.127C345.98 181.627 347.004 182.877 349.051 182.877C350.176 182.877 351.047 182.51 351.664 181.775C352.289 181.041 352.602 179.99 352.602 178.623V172.459ZM356.656 178.283C356.656 176.455 357.168 174.975 358.191 173.842C359.223 172.709 360.582 172.143 362.27 172.143C363.605 172.143 364.734 172.502 365.656 173.221C366.578 173.939 367.152 174.9 367.379 176.104H365.727C365.516 175.322 365.094 174.713 364.461 174.275C363.836 173.83 363.113 173.607 362.293 173.607C361.105 173.607 360.141 174.029 359.398 174.873C358.656 175.717 358.285 176.846 358.285 178.26C358.285 179.643 358.641 180.76 359.352 181.611C360.062 182.455 361.004 182.877 362.176 182.877C363.035 182.877 363.789 182.654 364.438 182.209C365.086 181.764 365.523 181.17 365.75 180.428H367.426C367.152 181.615 366.539 182.568 365.586 183.287C364.633 184.006 363.496 184.365 362.176 184.365C360.527 184.365 359.195 183.807 358.18 182.689C357.164 181.572 356.656 180.104 356.656 178.283ZM369.125 178.283C369.125 176.455 369.637 174.975 370.66 173.842C371.691 172.709 373.051 172.143 374.738 172.143C376.074 172.143 377.203 172.502 378.125 173.221C379.047 173.939 379.621 174.9 379.848 176.104H378.195C377.984 175.322 377.562 174.713 376.93 174.275C376.305 173.83 375.582 173.607 374.762 173.607C373.574 173.607 372.609 174.029 371.867 174.873C371.125 175.717 370.754 176.846 370.754 178.26C370.754 179.643 371.109 180.76 371.82 181.611C372.531 182.455 373.473 182.877 374.645 182.877C375.504 182.877 376.258 182.654 376.906 182.209C377.555 181.764 377.992 181.17 378.219 180.428H379.895C379.621 181.615 379.008 182.568 378.055 183.287C377.102 184.006 375.965 184.365 374.645 184.365C372.996 184.365 371.664 183.807 370.648 182.689C369.633 181.572 369.125 180.104 369.125 178.283ZM387.277 184.365C385.574 184.365 384.199 183.807 383.152 182.689C382.113 181.564 381.594 180.088 381.594 178.26C381.594 176.447 382.105 174.975 383.129 173.842C384.16 172.709 385.504 172.143 387.16 172.143C388.73 172.143 390.004 172.65 390.98 173.666C391.957 174.682 392.445 176.014 392.445 177.662V178.482H383.199C383.262 179.904 383.648 181.006 384.359 181.787C385.07 182.561 386.051 182.947 387.301 182.947C389.223 182.947 390.406 182.162 390.852 180.592H392.445C392.133 181.818 391.535 182.756 390.652 183.404C389.77 184.045 388.645 184.365 387.277 184.365ZM387.16 173.561C386.082 173.561 385.195 173.893 384.5 174.557C383.812 175.221 383.395 176.127 383.246 177.275H390.781C390.781 176.158 390.449 175.26 389.785 174.58C389.121 173.9 388.246 173.561 387.16 173.561ZM394.098 180.803H395.691C395.691 181.475 395.926 182.01 396.395 182.408C396.871 182.799 397.516 182.994 398.328 182.994C399.227 182.994 399.926 182.814 400.426 182.455C400.934 182.096 401.188 181.604 401.188 180.979C401.188 180.486 401.047 180.096 400.766 179.807C400.484 179.518 400.008 179.291 399.336 179.127L397.344 178.623C395.344 178.123 394.344 177.076 394.344 175.482C394.344 174.467 394.727 173.658 395.492 173.057C396.266 172.447 397.281 172.143 398.539 172.143C399.766 172.143 400.75 172.459 401.492 173.092C402.234 173.717 402.621 174.568 402.652 175.646H401.035C401.012 174.975 400.777 174.451 400.332 174.076C399.887 173.701 399.273 173.514 398.492 173.514C397.68 173.514 397.051 173.682 396.605 174.018C396.168 174.354 395.949 174.834 395.949 175.459C395.949 176.357 396.582 176.963 397.848 177.275L399.84 177.779C400.855 178.029 401.598 178.404 402.066 178.904C402.535 179.404 402.77 180.072 402.77 180.908C402.77 181.947 402.363 182.783 401.551 183.416C400.738 184.049 399.672 184.365 398.352 184.365C397.047 184.365 396.012 184.041 395.246 183.393C394.48 182.744 394.098 181.881 394.098 180.803ZM404.504 180.803H406.098C406.098 181.475 406.332 182.01 406.801 182.408C407.277 182.799 407.922 182.994 408.734 182.994C409.633 182.994 410.332 182.814 410.832 182.455C411.34 182.096 411.594 181.604 411.594 180.979C411.594 180.486 411.453 180.096 411.172 179.807C410.891 179.518 410.414 179.291 409.742 179.127L407.75 178.623C405.75 178.123 404.75 177.076 404.75 175.482C404.75 174.467 405.133 173.658 405.898 173.057C406.672 172.447 407.688 172.143 408.945 172.143C410.172 172.143 411.156 172.459 411.898 173.092C412.641 173.717 413.027 174.568 413.059 175.646H411.441C411.418 174.975 411.184 174.451 410.738 174.076C410.293 173.701 409.68 173.514 408.898 173.514C408.086 173.514 407.457 173.682 407.012 174.018C406.574 174.354 406.355 174.834 406.355 175.459C406.355 176.357 406.988 176.963 408.254 177.275L410.246 177.779C411.262 178.029 412.004 178.404 412.473 178.904C412.941 179.404 413.176 180.072 413.176 180.908C413.176 181.947 412.77 182.783 411.957 183.416C411.145 184.049 410.078 184.365 408.758 184.365C407.453 184.365 406.418 184.041 405.652 183.393C404.887 182.744 404.504 181.881 404.504 180.803ZM414.605 172.459H416.375V170.197C416.375 168.963 416.672 168.053 417.266 167.467C417.859 166.873 418.637 166.576 419.598 166.576C420.098 166.576 420.52 166.607 420.863 166.67V168.088H419.879C419.184 168.088 418.703 168.26 418.438 168.604C418.172 168.939 418.039 169.471 418.039 170.197V172.459H420.77V173.854H418.039V184.072H416.375V173.854H414.605V172.459ZM431.188 172.459H432.84V184.072H431.398L431.188 182.104C430.867 182.783 430.332 183.33 429.582 183.744C428.84 184.158 428.016 184.365 427.109 184.365C425.766 184.365 424.723 183.943 423.98 183.1C423.246 182.248 422.879 181.1 422.879 179.654V172.436H424.566V179.127C424.566 181.627 425.59 182.877 427.637 182.877C428.762 182.877 429.633 182.51 430.25 181.775C430.875 181.041 431.188 179.99 431.188 178.623V172.459ZM438.02 184.072H436.367V166.576H438.02V184.072ZM350.773 212.135V195.459H352.215L352.391 197.803C352.789 196.92 353.367 196.256 354.125 195.811C354.891 195.365 355.773 195.143 356.773 195.143C358.422 195.143 359.73 195.709 360.699 196.842C361.668 197.967 362.152 199.424 362.152 201.213C362.152 203.018 361.672 204.494 360.711 205.643C359.758 206.791 358.445 207.365 356.773 207.365C355.773 207.365 354.902 207.154 354.16 206.732C353.418 206.303 352.844 205.674 352.438 204.846V212.135H350.773ZM352.461 201.26C352.461 202.619 352.82 203.729 353.539 204.588C354.266 205.447 355.25 205.877 356.492 205.877C357.727 205.877 358.699 205.447 359.41 204.588C360.121 203.729 360.477 202.619 360.477 201.26C360.477 199.893 360.121 198.783 359.41 197.932C358.699 197.08 357.727 196.654 356.492 196.654C355.242 196.654 354.258 197.08 353.539 197.932C352.82 198.783 352.461 199.893 352.461 201.26ZM368.129 207.365C366.91 207.365 365.949 207.053 365.246 206.428C364.543 205.795 364.191 204.963 364.191 203.932C364.191 202.869 364.574 202.014 365.34 201.365C366.113 200.717 367.18 200.338 368.539 200.229L372.383 199.924V199.537C372.383 197.537 371.355 196.537 369.301 196.537C368.293 196.537 367.504 196.756 366.934 197.193C366.371 197.623 366.09 198.229 366.09 199.01H364.578C364.578 197.838 365.016 196.9 365.891 196.197C366.766 195.494 367.922 195.143 369.359 195.143C370.773 195.143 371.902 195.51 372.746 196.244C373.59 196.979 374.012 198.084 374.012 199.561V207.072H372.617L372.406 205.033C372.047 205.768 371.488 206.342 370.73 206.756C369.98 207.162 369.113 207.365 368.129 207.365ZM368.516 206.018C369.727 206.018 370.672 205.635 371.352 204.869C372.039 204.096 372.383 203.068 372.383 201.787V201.166L368.949 201.436C367.902 201.529 367.129 201.791 366.629 202.221C366.129 202.65 365.879 203.205 365.879 203.885C365.879 204.58 366.113 205.111 366.582 205.479C367.059 205.838 367.703 206.018 368.516 206.018ZM375.875 212.135V210.764H377.152C377.465 210.764 377.719 210.748 377.914 210.717C378.117 210.693 378.344 210.631 378.594 210.529C378.844 210.436 379.062 210.271 379.25 210.037C379.438 209.811 379.602 209.51 379.742 209.135L380.246 207.764L375.535 195.459H377.293L381.031 205.584L384.711 195.459H386.41L381.09 209.732C380.762 210.631 380.312 211.283 379.742 211.689C379.18 212.096 378.477 212.299 377.633 212.299C376.953 212.299 376.367 212.244 375.875 212.135ZM387.113 201.26C387.113 199.486 387.668 198.025 388.777 196.877C389.895 195.721 391.309 195.143 393.02 195.143C394.723 195.143 396.129 195.721 397.238 196.877C398.355 198.025 398.914 199.486 398.914 201.26C398.914 203.025 398.355 204.486 397.238 205.643C396.129 206.791 394.723 207.365 393.02 207.365C391.316 207.365 389.906 206.791 388.789 205.643C387.672 204.486 387.113 203.025 387.113 201.26ZM388.789 201.236C388.789 202.604 389.18 203.721 389.961 204.588C390.75 205.447 391.77 205.877 393.02 205.877C394.254 205.877 395.266 205.447 396.055 204.588C396.844 203.721 397.238 202.604 397.238 201.236C397.238 199.893 396.844 198.791 396.055 197.932C395.266 197.064 394.254 196.631 393.02 196.631C391.777 196.631 390.762 197.064 389.973 197.932C389.184 198.791 388.789 199.893 388.789 201.236ZM409.426 195.459H411.078V207.072H409.637L409.426 205.104C409.105 205.783 408.57 206.33 407.82 206.744C407.078 207.158 406.254 207.365 405.348 207.365C404.004 207.365 402.961 206.943 402.219 206.1C401.484 205.248 401.117 204.1 401.117 202.654V195.436H402.805V202.127C402.805 204.627 403.828 205.877 405.875 205.877C407 205.877 407.871 205.51 408.488 204.775C409.113 204.041 409.426 202.99 409.426 201.623V195.459ZM417.195 207.072H415.566V196.854H413.234V195.459H415.566V191.779H417.195V195.459H419.516V196.854H417.195V207.072Z" fill="white"/>
<path d="M385 142.947C359.152 142.947 338.125 121.92 338.125 96.0723C338.125 70.2243 359.152 49.1973 385 49.1973C410.848 49.1973 431.875 70.2243 431.875 96.0723C431.875 121.92 410.848 142.947 385 142.947ZM385 55.4473C362.602 55.4473 344.375 73.6743 344.375 96.0723C344.375 118.47 362.602 136.697 385 136.697C407.398 136.697 425.625 118.47 425.625 96.0723C425.625 73.6743 407.398 55.4473 385 55.4473Z" fill="white" fill-opacity="0.35"/>
<path d="M380.961 110.782L409.086 82.6573C410.309 81.4346 410.309 79.462 409.086 78.2393C407.863 77.0166 405.891 77.0166 404.668 78.2393L378.754 104.153L368.465 93.8643C367.242 92.6416 365.27 92.6416 364.047 93.8643C362.824 95.087 362.824 97.0596 364.047 98.2823L376.547 110.782C377.156 111.392 377.957 111.696 378.758 111.696C379.559 111.696 380.359 111.392 380.969 110.782H380.961Z" fill="white"/>
<circle cx="293.5" cy="265.572" r="14.5" fill="white"/>
<path d="M288.578 268.354C288.842 268.571 288.876 268.955 288.654 269.214C288.53 269.356 288.352 269.43 288.176 269.43C288.034 269.43 287.892 269.384 287.774 269.288C286.646 268.362 286 267.009 286 265.572C286 264.271 286.52 263.049 287.466 262.127C288.412 261.204 289.666 260.697 291 260.697H294.492L293.892 260.112C293.648 259.875 293.648 259.489 293.892 259.251C294.136 259.013 294.532 259.013 294.776 259.251L296.442 260.875C296.5 260.931 296.546 260.998 296.576 261.074C296.64 261.222 296.64 261.39 296.576 261.54C296.512 261.688 296.392 261.807 296.238 261.869C296.162 261.9 296.08 261.916 295.998 261.916H290.998C289.998 261.916 289.058 262.296 288.348 262.988C287.64 263.681 287.25 264.597 287.25 265.572C287.25 266.648 287.734 267.664 288.578 268.354ZM299.228 261.856C298.962 261.639 298.57 261.672 298.346 261.93C298.124 262.187 298.158 262.571 298.422 262.789C299.266 263.482 299.75 264.496 299.75 265.572C299.75 266.547 299.36 267.463 298.65 268.155C297.94 268.847 297 269.228 296 269.228H291C290.918 269.228 290.838 269.243 290.762 269.274C290.61 269.337 290.488 269.456 290.424 269.604C290.36 269.752 290.36 269.92 290.424 270.07C290.456 270.144 290.502 270.212 290.558 270.269L292.224 271.893C292.346 272.012 292.506 272.072 292.666 272.072C292.826 272.072 292.986 272.012 293.108 271.893C293.352 271.655 293.352 271.269 293.108 271.031L292.508 270.446H296C297.334 270.446 298.588 269.939 299.534 269.017C300.48 268.095 301 266.872 301 265.572C301 264.135 300.354 262.782 299.228 261.856Z" fill="black"/>
<defs>
<filter id="filter0_d_1_2" x="248" y="0.0722656" width="276" height="323" filterUnits="userSpaceOnUse" color-interpolation-filters="sRGB">
<feFlood flood-opacity="0" result="BackgroundImageFix"/>
<feColorMatrix in="SourceAlpha" type="matrix" values="0 0 0 0 0 0 0 0 0 0 0 0 0 0 0 0 0 0 127 0" result="hardAlpha"/>
<feOffset dy="4"/>
<feGaussianBlur stdDeviation="6.5"/>
<feComposite in2="hardAlpha" operator="out"/>
<feColorMatrix type="matrix" values="0 0 0 0 0 0 0 0 0 0 0 0 0 0 0 0 0 0 0.08 0"/>
<feBlend mode="normal" in2="BackgroundImageFix" result="effect1_dropShadow_1_2"/>
<feBlend mode="normal" in="SourceGraphic" in2="effect1_dropShadow_1_2" result="shape"/>
</filter>
<linearGradient id="paint0_linear_1_2" x1="141" y1="153.573" x2="141" y2="263.073" gradientUnits="userSpaceOnUse">
<stop stop-color="#FF69B3"/>
<stop offset="1" stop-color="#FF69B3" stop-opacity="0"/>
</linearGradient>
</defs>
</svg>
