<svg width="134" height="134" viewBox="0 0 134 134" fill="none" xmlns="http://www.w3.org/2000/svg">
<path d="M62.4079 5.46056C64.8055 2.60952 69.1945 2.60952 71.5921 5.46056L72.5803 6.63572C74.5023 8.92114 77.8123 9.4454 80.3464 7.86574L81.6494 7.05349C84.8107 5.08288 88.9848 6.43914 90.3841 9.89154L90.9608 11.3146C92.0824 14.082 95.0685 15.6035 97.9667 14.8842L99.4569 14.5144C103.072 13.6171 106.623 16.1969 106.887 19.9127L106.996 21.4443C107.207 24.4229 109.577 26.7927 112.556 27.0042L114.087 27.113C117.803 27.3769 120.383 30.9276 119.486 34.5431L119.116 36.0333C118.396 38.9315 119.918 41.9176 122.685 43.0392L124.108 43.6159C127.561 45.0152 128.917 49.1893 126.947 52.3506L126.134 53.6536C124.555 56.1877 125.079 59.4977 127.364 61.4197L128.539 62.4079C131.39 64.8055 131.39 69.1945 128.539 71.5921L127.364 72.5803C125.079 74.5022 124.555 77.8123 126.134 80.3464L126.947 81.6494C128.917 84.8107 127.561 88.9848 124.108 90.3841L122.685 90.9608C119.918 92.0824 118.396 95.0685 119.116 97.9667L119.486 99.4569C120.383 103.072 117.803 106.623 114.087 106.887L112.556 106.996C109.577 107.207 107.207 109.577 106.996 112.556L106.887 114.087C106.623 117.803 103.072 120.383 99.4569 119.486L97.9667 119.116C95.0685 118.396 92.0824 119.918 90.9608 122.685L90.3841 124.108C88.9848 127.561 84.8107 128.917 81.6494 126.947L80.3464 126.134C77.8123 124.555 74.5022 125.079 72.5803 127.364L71.5921 128.539C69.1945 131.39 64.8055 131.39 62.4079 128.539L61.4197 127.364C59.4977 125.079 56.1877 124.555 53.6536 126.134L52.3506 126.947C49.1893 128.917 45.0152 127.561 43.6159 124.108L43.0392 122.685C41.9176 119.918 38.9315 118.396 36.0333 119.116L34.5431 119.486C30.9276 120.383 27.3769 117.803 27.113 114.087L27.0042 112.556C26.7927 109.577 24.4229 107.207 21.4443 106.996L19.9127 106.887C16.1969 106.623 13.6171 103.072 14.5144 99.4569L14.8842 97.9667C15.6035 95.0684 14.082 92.0824 11.3146 90.9608L9.89154 90.3841C6.43914 88.9848 5.08288 84.8107 7.05349 81.6494L7.86574 80.3464C9.44539 77.8123 8.92114 74.5022 6.63572 72.5803L5.46056 71.5921C2.60952 69.1945 2.60952 64.8055 5.46056 62.4079L6.63572 61.4197C8.92114 59.4977 9.44539 56.1877 7.86574 53.6536L7.05349 52.3506C5.08288 49.1893 6.43914 45.0152 9.89155 43.6159L11.3146 43.0392C14.082 41.9176 15.6035 38.9315 14.8842 36.0333L14.5144 34.5431C13.6171 30.9276 16.1969 27.3769 19.9127 27.113L21.4443 27.0042C24.4229 26.7927 26.7927 24.4229 27.0042 21.4443L27.113 19.9127C27.3769 16.1969 30.9276 13.6171 34.5431 14.5144L36.0333 14.8842C38.9315 15.6035 41.9176 14.082 43.0392 11.3146L43.6159 9.89155C45.0152 6.43914 49.1893 5.08288 52.3506 7.05349L53.6536 7.86574C56.1877 9.44539 59.4977 8.92114 61.4197 6.63572L62.4079 5.46056Z" fill="#FF69B3"/>
<circle cx="67" cy="67" r="40" stroke="white" stroke-width="2"/>
<path d="M67.9909 57.55L60.9559 79H54.3109L47.3809 57.55H52.4359L57.6934 75.55L63.0409 57.55H67.9909ZM77.5032 57.1075C78.8782 57.1075 80.1157 57.2725 81.2157 57.6025C82.3207 57.9325 83.2582 58.4075 84.0282 59.0275C84.8032 59.6475 85.3982 60.405 85.8132 61.3C86.2282 62.19 86.4357 63.195 86.4357 64.315H81.8907C81.8907 63.8 81.7832 63.335 81.5682 62.92C81.3582 62.505 81.0582 62.1525 80.6682 61.8625C80.2782 61.5725 79.8107 61.35 79.2657 61.195C78.7207 61.04 78.1132 60.9625 77.4432 60.9625C77.0732 60.9625 76.7082 60.9875 76.3482 61.0375C75.9882 61.0875 75.6482 61.1625 75.3282 61.2625C75.0082 61.3625 74.7132 61.4875 74.4432 61.6375C74.1732 61.7875 73.9382 61.9625 73.7382 62.1625C73.5432 62.3625 73.3907 62.5875 73.2807 62.8375C73.1707 63.0875 73.1157 63.3625 73.1157 63.6625C73.1157 64.0875 73.2182 64.435 73.4232 64.705C73.6332 64.97 73.9407 65.1875 74.3457 65.3575C74.7557 65.5275 75.2607 65.6675 75.8607 65.7775C76.4607 65.8875 77.1532 66 77.9382 66.115L78.8157 66.2425C79.2657 66.3075 79.7282 66.38 80.2032 66.46C80.6782 66.535 81.1532 66.6275 81.6282 66.7375C82.1032 66.8475 82.5682 66.98 83.0232 67.135C83.4832 67.29 83.9182 67.4775 84.3282 67.6975C84.7382 67.9175 85.1157 68.1775 85.4607 68.4775C85.8057 68.7725 86.1032 69.1175 86.3532 69.5125C86.6082 69.9075 86.8057 70.3575 86.9457 70.8625C87.0857 71.3675 87.1557 71.9375 87.1557 72.5725C87.1557 73.6975 86.9307 74.69 86.4807 75.55C86.0357 76.405 85.4007 77.1225 84.5757 77.7025C83.7557 78.2775 82.7632 78.7125 81.5982 79.0075C80.4332 79.3025 79.1332 79.45 77.6982 79.45C76.1532 79.45 74.7832 79.2825 73.5882 78.9475C72.3932 78.6125 71.3857 78.1275 70.5657 77.4925C69.7507 76.8575 69.1307 76.0825 68.7057 75.1675C68.2807 74.2475 68.0682 73.205 68.0682 72.04H72.6132C72.6132 72.595 72.7282 73.0925 72.9582 73.5325C73.1932 73.9725 73.5282 74.345 73.9632 74.65C74.4032 74.955 74.9357 75.19 75.5607 75.355C76.1857 75.515 76.8882 75.595 77.6682 75.595C78.3332 75.595 78.9557 75.535 79.5357 75.415C80.1207 75.295 80.6282 75.1125 81.0582 74.8675C81.4932 74.6225 81.8357 74.3175 82.0857 73.9525C82.3357 73.5875 82.4607 73.16 82.4607 72.67C82.4607 72.2 82.3557 71.8225 82.1457 71.5375C81.9357 71.2525 81.6282 71.0225 81.2232 70.8475C80.8232 70.6725 80.3332 70.535 79.7532 70.435C79.1782 70.33 78.5232 70.225 77.7882 70.12L76.6557 69.955C76.0657 69.87 75.4532 69.7775 74.8182 69.6775C74.1832 69.5725 73.5607 69.4325 72.9507 69.2575C72.3407 69.0825 71.7607 68.86 71.2107 68.59C70.6607 68.32 70.1782 67.975 69.7632 67.555C69.3482 67.135 69.0182 66.63 68.7732 66.04C68.5332 65.45 68.4132 64.7475 68.4132 63.9325C68.4132 63.1875 68.5182 62.5025 68.7282 61.8775C68.9382 61.2525 69.2357 60.6875 69.6207 60.1825C70.0107 59.6775 70.4782 59.235 71.0232 58.855C71.5732 58.47 72.1857 58.1475 72.8607 57.8875C73.5357 57.6275 74.2632 57.4325 75.0432 57.3025C75.8282 57.1725 76.6482 57.1075 77.5032 57.1075Z" fill="white"/>
</svg>
