<svg width="20" height="12" viewBox="0 0 20 12" fill="none" xmlns="http://www.w3.org/2000/svg">
<path d="M0.720793 6.08594C6.17148 6.08594 11.585 6.08594 17.0079 6.08594C17.0172 6.05889 17.0264 6.03183 17.0264 6.00478C16.8967 5.94165 16.7669 5.87852 16.6371 5.80638C14.8758 4.87752 13.9118 3.40757 13.5502 1.5318C13.5317 1.45966 13.6151 1.36948 13.6522 1.2793C13.7356 1.33341 13.8654 1.3785 13.8932 1.45966C14.0415 1.88351 14.1157 2.33441 14.2918 2.74023C15.089 4.59796 16.5073 5.69816 18.556 6.03183C18.6857 6.04987 18.7784 6.22121 18.9082 6.32943C18.1852 6.5639 17.5456 6.69917 16.9801 6.9607C15.3301 7.72723 14.3753 9.04387 13.9859 10.7663C13.9396 10.9828 13.9674 11.3164 13.541 11.1721C13.8747 9.04387 14.6348 8.02483 17.0913 6.45568C16.8318 6.45568 16.6556 6.45568 16.4795 6.45568C11.3718 6.45568 6.26417 6.45568 1.14721 6.44666C0.952538 6.44666 0.637365 6.5639 0.720793 6.08594Z" fill="black" stroke="black"/>
</svg>
