<svg width="262" height="140" viewBox="0 0 262 140" fill="none" xmlns="http://www.w3.org/2000/svg">
<path d="M74.8748 71.847C74.0358 71.4436 73.4045 70.8697 72.9811 70.1252C72.5577 69.3807 72.3038 68.5337 72.2194 67.5841C72.1318 66.6179 72.187 65.5889 72.385 64.4971C72.5798 63.3888 72.8709 62.2872 73.2582 61.1925C73.6621 60.0945 74.1423 59.0332 74.6987 58.0085C75.2685 56.964 75.8696 56.034 76.502 55.2187C77.1477 54.3834 77.8047 53.6926 78.4731 53.1462C79.1548 52.5799 79.8078 52.2177 80.4323 52.0597C80.7147 51.9175 81.0153 51.8666 81.3339 51.9071C81.6691 51.9443 81.9826 52.0462 82.2744 52.2128C82.5629 52.3628 82.8181 52.5624 83.04 52.8119C83.2619 53.0613 83.4257 53.3222 83.5314 53.5947C83.6338 53.8505 83.6515 54.1144 83.5846 54.3865C83.5143 54.642 83.333 54.8591 83.0405 55.0377C82.9972 55.0808 82.9175 55.1138 82.8013 55.1368C82.7016 55.1565 82.6485 55.1498 82.6419 55.1166L82.2526 53.1489C82.246 53.1157 82.1979 53.0907 82.1083 53.0739C82.0154 53.0405 81.9092 53.027 81.7897 53.0334C81.6835 53.0199 81.5706 53.0164 81.4511 53.0228C81.3482 53.0259 81.2652 53.0423 81.202 53.0721C79.6403 53.8125 78.3669 54.7892 77.3818 56.0022C76.4133 57.212 75.6719 58.5665 75.1577 60.066C74.4296 62.229 73.9363 64.009 73.6779 65.406C73.436 66.7998 73.3575 67.8852 73.4422 68.6622C73.5436 69.4358 73.7915 69.9476 74.186 70.1974C74.5773 70.4305 75.0519 70.4746 75.6099 70.3297C76.1679 70.1848 76.7909 69.8889 77.479 69.4422C78.1638 68.9788 78.8438 68.4474 79.5189 67.8479C80.2073 67.2285 80.8626 66.5725 81.4848 65.88C82.1037 65.1708 82.6362 64.5046 83.0823 63.8814C83.5284 63.2582 83.8515 62.7111 84.0517 62.2402C84.2651 61.7493 84.3023 61.4141 84.1632 61.2345C83.8877 61.2373 83.6004 61.3114 83.3013 61.4569C82.999 61.5857 82.7398 61.7147 82.5237 61.8437C82.3842 61.9231 82.1199 62.0703 81.7311 62.2853C81.3589 62.497 80.9634 62.7219 80.5446 62.9601C80.1258 63.1982 79.7303 63.4232 79.3581 63.6349C78.9859 63.8466 78.7316 64.0004 78.5953 64.0964C78.3793 64.2254 78.1767 64.2483 77.9877 64.1649C77.8119 64.0616 77.6728 63.9252 77.5702 63.7557C77.481 63.5663 77.4448 63.3837 77.4618 63.2078C77.4755 63.0153 77.5687 62.876 77.7415 62.7901C77.9973 62.6877 78.4343 62.4545 79.0525 62.0906C79.684 61.7068 80.3953 61.29 81.1863 60.8401C81.974 60.3736 82.7883 59.9105 83.6291 59.4508C84.4699 58.991 85.2175 58.6274 85.8721 58.3598C86.5266 58.0923 87.0381 57.9738 87.4065 58.0044C87.7882 58.0151 87.9155 58.266 87.7884 58.7571C87.6718 58.9527 87.4553 59.2975 87.1389 59.7915C86.8193 60.2689 86.4796 60.7761 86.12 61.3132C85.7604 61.8502 85.4125 62.3591 85.0762 62.8398C84.7566 63.3172 84.5285 63.647 84.392 63.8293C84.3355 63.8923 84.1757 64.0878 83.9128 64.4159C83.6665 64.7408 83.3769 65.1087 83.0441 65.5196C82.7246 65.9107 82.4068 66.3101 82.0906 66.7178C81.7711 67.1088 81.5199 67.4088 81.3369 67.6175C81.1571 67.8429 80.9292 68.1296 80.6529 68.4776C80.3767 68.8256 80.0606 69.1901 79.7046 69.5712C79.3619 69.9323 78.9927 70.2901 78.597 70.6445C78.1979 70.9823 77.789 71.2703 77.3703 71.5084C76.9515 71.7466 76.5263 71.9084 76.0945 71.9938C75.6794 72.076 75.2728 72.027 74.8748 71.847ZM98.8858 67.0954C98.4013 67.0015 97.9966 66.8313 97.6718 66.585C97.347 66.3387 97.072 66.0394 96.847 65.687C96.622 65.3347 96.4269 64.9592 96.2617 64.5605C96.0933 64.1452 95.9331 63.7282 95.7812 63.3096C95.6121 63.2396 95.3661 63.3918 95.0433 63.7663C94.7173 64.1241 94.3479 64.5682 93.9352 65.0985C93.5225 65.6288 93.0715 66.184 92.5824 66.7639C92.1065 67.324 91.6243 67.7645 91.1356 68.0855C90.647 68.4066 90.1653 68.545 89.6907 68.5009C89.2327 68.4535 88.8069 68.0891 88.4132 67.4078C88.2809 67.1751 88.2351 66.8132 88.276 66.322C88.3301 65.8109 88.4425 65.2451 88.613 64.6246C88.7836 64.0042 88.9924 63.3589 89.2394 62.6889C89.4997 61.9989 89.7533 61.362 90.0002 60.7783C90.2603 60.1746 90.5037 59.6606 90.7303 59.2361C90.9702 58.7918 91.1617 58.495 91.3047 58.3459C91.7228 58.453 91.9447 58.7024 91.9705 59.0942C92.0096 59.4661 91.9439 59.9191 91.7735 60.4532C91.6197 60.9841 91.3895 61.5645 91.0828 62.1947C90.7927 62.8215 90.5193 63.445 90.2624 64.0653C90.0188 64.6657 89.8384 65.2363 89.7211 65.7772C89.6038 66.318 89.6328 66.7696 89.808 67.1318C90.2029 67.2089 90.6365 67.0455 91.1087 66.6414C91.5942 66.2175 92.0899 65.6707 92.5959 65.0012C93.1184 64.3284 93.6345 63.5792 94.1441 62.7536C94.667 61.9081 95.1467 61.1057 95.5831 60.3464C96.0162 59.5705 96.3994 58.8907 96.7325 58.3071C97.0657 57.7236 97.3154 57.329 97.4818 57.1235C97.8634 57.2206 98.092 57.4601 98.1676 57.842C98.2398 58.2073 98.224 58.6504 98.12 59.1714C98.0327 59.6891 97.9037 60.2582 97.7332 60.8786C97.5759 61.4792 97.4519 62.0731 97.3611 62.6605C97.2702 63.2479 97.2575 63.794 97.3229 64.2987C97.3883 64.8034 97.6065 65.2089 97.9777 65.515L99.0217 66.3438L101.537 65.8459C101.654 65.8229 101.688 65.8678 101.642 65.9806C101.595 66.0934 101.517 66.221 101.407 66.3635C101.314 66.5028 101.212 66.6436 101.102 66.7862C100.989 66.9121 100.924 66.9767 100.908 66.98C100.492 67.1484 100.145 67.2258 99.8665 67.2119C99.591 67.2147 99.264 67.1758 98.8858 67.0954ZM103.883 65.7959C103.419 65.5427 103.098 65.0972 102.92 64.4594C102.758 63.8184 102.705 63.0697 102.76 62.2134C102.831 61.3537 102.996 60.4411 103.253 59.4756C103.524 58.4902 103.871 57.5415 104.295 56.6294C104.715 55.7008 105.203 54.8536 105.759 54.0879C106.312 53.3056 106.899 52.6976 107.52 52.264C108.139 51.8137 108.782 51.5744 109.449 51.5458C110.113 51.5007 110.776 51.7577 111.439 52.3167C111.853 52.6661 112.137 53.0501 112.288 53.4687C112.437 53.8707 112.514 54.3041 112.52 54.7688C112.522 55.217 112.478 55.6916 112.387 56.1927C112.293 56.6772 112.201 57.17 112.111 57.6711C112.037 58.1689 111.989 58.67 111.968 59.1746C111.964 59.6759 112.044 60.169 112.209 60.654C112.417 61.2686 112.773 61.5863 113.278 61.6073C113.782 61.6282 114.349 61.4816 114.977 61.1675C115.621 60.8501 116.278 60.4183 116.946 59.8719C117.615 59.3255 118.225 58.7906 118.777 58.2672C119.346 57.7405 119.808 57.2867 120.164 56.9056C120.537 56.5213 120.723 56.3291 120.723 56.3291C121.168 56.1375 121.432 56.1198 121.515 56.2759C121.611 56.4123 121.565 56.6628 121.379 57.0276C121.205 57.3725 120.917 57.7918 120.515 58.2856C120.109 58.7629 119.635 59.2449 119.093 59.7318C118.551 60.2187 117.96 60.6806 117.322 61.1175C116.684 61.5544 116.044 61.8967 115.403 62.1444C114.758 62.3754 114.126 62.492 113.505 62.4941C112.898 62.4762 112.357 62.2726 111.883 61.8833C111.661 61.7202 111.48 61.5488 111.341 61.3693C111.219 61.1865 111.043 61.04 110.814 60.93C110.611 61.2118 110.373 61.5781 110.1 62.0291C109.824 62.4634 109.516 62.9126 109.176 63.3766C108.85 63.8208 108.487 64.2549 108.088 64.6791C107.705 65.0999 107.29 65.441 106.841 65.7023C106.392 65.9637 105.914 66.1187 105.406 66.1675C104.914 66.213 104.407 66.0891 103.883 65.7959ZM103.989 64.8948C104.244 65.3966 104.625 65.58 105.133 65.4449C105.638 65.2932 106.185 64.9175 106.774 64.3179C107.363 63.7182 107.944 62.9476 108.517 62.0059C109.086 61.0477 109.565 60.0212 109.952 58.9265C110.336 57.8152 110.569 56.682 110.651 55.5269C110.75 54.3685 110.619 53.2728 110.259 52.2396C109.798 52.003 109.298 52.0933 108.76 52.5105C108.218 52.9111 107.672 53.5108 107.123 54.3097C106.587 55.0888 106.077 56.0007 105.594 57.0454C105.123 58.0702 104.731 59.0968 104.417 60.1253C104.1 61.1372 103.889 62.0762 103.784 62.9424C103.696 63.8054 103.764 64.4562 103.989 64.8948ZM120.73 62.7726C120.693 62.7626 120.655 62.5716 120.616 62.1998C120.591 61.808 120.563 61.3216 120.535 60.7406C120.506 60.1596 120.491 59.5155 120.489 58.8084C120.487 58.1013 120.5 57.4258 120.528 56.7819C120.552 56.1213 120.602 55.5421 120.676 55.0443C120.763 54.5266 120.872 54.16 121.002 53.9445C121.095 53.8053 121.211 53.7823 121.35 53.8755C121.486 53.9521 121.629 54.062 121.778 54.205C121.924 54.3314 122.068 54.4496 122.21 54.5594C122.35 54.6527 122.476 54.6363 122.589 54.5104C122.926 53.7708 123.311 53.0562 123.744 52.3666C124.19 51.6571 124.711 51.0191 125.306 50.4526C125.363 50.3897 125.53 50.2788 125.81 50.12C126.085 49.9446 126.405 49.7693 126.767 49.5941C127.126 49.4023 127.498 49.2338 127.883 49.0885C128.282 48.9233 128.624 48.8211 128.91 48.7818C129.208 48.7227 129.423 48.758 129.552 48.8877C129.694 48.9975 129.69 49.2399 129.54 49.6147C128.547 49.8284 127.675 50.3031 126.923 51.0385C126.171 51.7739 125.512 52.6291 124.946 53.6039C124.38 54.5788 123.895 55.6152 123.491 56.7132C123.084 57.7946 122.738 58.7947 122.454 59.7137C122.186 60.6294 121.957 61.3908 121.767 61.9979C121.593 62.6018 121.44 62.9168 121.307 62.9431C121.29 62.9464 121.209 62.928 121.063 62.8878C120.914 62.8311 120.803 62.7927 120.73 62.7726ZM133.473 59.9402C133.009 59.687 132.688 59.2415 132.51 58.6038C132.348 57.9627 132.295 57.214 132.35 56.3577C132.421 55.498 132.586 54.5854 132.844 53.6199C133.114 52.6345 133.462 51.6858 133.885 50.7738C134.305 49.8451 134.793 48.9979 135.349 48.2322C135.902 47.4499 136.489 46.8419 137.111 46.4083C137.729 45.9581 138.372 45.7187 139.039 45.6902C139.703 45.645 140.367 45.902 141.029 46.461C141.444 46.8104 141.727 47.1944 141.879 47.613C142.027 48.015 142.104 48.4484 142.11 48.9132C142.112 49.3613 142.068 49.8359 141.978 50.337C141.884 50.8215 141.791 51.3143 141.701 51.8154C141.627 52.3132 141.579 52.8144 141.558 53.3189C141.554 53.8202 141.634 54.3133 141.799 54.7983C142.007 55.4129 142.363 55.7306 142.868 55.7516C143.373 55.7725 143.939 55.6259 144.567 55.3118C145.212 54.9945 145.868 54.5626 146.536 54.0162C147.205 53.4698 147.815 52.9349 148.367 52.4115C148.936 51.8848 149.398 51.431 149.754 51.0499C150.127 50.6656 150.313 50.4734 150.313 50.4734C150.758 50.2818 151.022 50.2641 151.105 50.4203C151.201 50.5566 151.156 50.8071 150.969 51.1719C150.796 51.5168 150.508 51.9361 150.105 52.43C149.699 52.9072 149.225 53.3892 148.683 53.8761C148.141 54.363 147.551 54.8249 146.912 55.2618C146.274 55.6987 145.634 56.041 144.993 56.2887C144.349 56.5198 143.716 56.6363 143.095 56.6384C142.488 56.6206 141.947 56.417 141.473 56.0276C141.251 55.8645 141.07 55.6932 140.931 55.5136C140.809 55.3308 140.633 55.1844 140.404 55.0743C140.201 55.3561 139.963 55.7224 139.69 56.1734C139.414 56.6077 139.106 57.0569 138.766 57.5209C138.44 57.9651 138.077 58.3993 137.678 58.8234C137.295 59.2442 136.88 59.5853 136.431 59.8466C135.982 60.108 135.504 60.263 134.996 60.3118C134.505 60.3573 133.997 60.2334 133.473 59.9402ZM133.579 59.0391C133.834 59.5409 134.215 59.7243 134.724 59.5892C135.229 59.4375 135.775 59.0619 136.364 58.4622C136.953 57.8625 137.534 57.0919 138.107 56.1502C138.676 55.192 139.155 54.1655 139.542 53.0708C139.926 51.9595 140.159 50.8263 140.241 49.6712C140.34 48.5129 140.209 47.4171 139.849 46.384C139.388 46.1473 138.889 46.2376 138.35 46.6548C137.808 47.0554 137.263 47.6551 136.713 48.4541C136.177 49.2331 135.667 50.145 135.184 51.1897C134.714 52.2145 134.322 53.2412 134.007 54.2696C133.69 55.2815 133.479 56.2205 133.374 57.0868C133.286 57.9497 133.355 58.6005 133.579 59.0391ZM159.312 55.1376C159.153 54.5995 159.088 54.0516 159.116 53.4939C159.157 52.9164 159.243 52.3472 159.373 51.7865C159.517 51.2058 159.671 50.6318 159.835 50.0645C160.012 49.4773 160.151 48.9149 160.251 48.3773C160.349 47.8231 160.391 47.297 160.379 46.799C160.364 46.2845 160.233 45.8012 159.989 45.3492C159.544 45.2819 159.069 45.4104 158.564 45.7347C158.075 46.0557 157.576 46.4996 157.067 47.0662C156.555 47.6162 156.034 48.2542 155.505 48.9801C154.989 49.6862 154.484 50.4072 153.992 51.1432C153.512 51.8592 153.053 52.5455 152.613 53.2019C152.174 53.8583 151.766 54.4135 151.39 54.8676C151.027 55.3017 150.706 55.5982 150.427 55.7569C150.144 55.8991 149.924 55.8306 149.765 55.5514C149.745 55.5381 149.795 55.3125 149.916 54.8745C150.049 54.4167 150.205 53.851 150.382 53.1775C150.576 52.5006 150.785 51.7691 151.009 50.9828C151.25 50.1932 151.475 49.4583 151.686 48.7782C151.893 48.0815 152.079 47.4926 152.242 47.0116C152.406 46.5306 152.518 46.2669 152.577 46.2205C152.972 46.384 153.197 46.6069 153.253 46.8892C153.322 47.1516 153.337 47.4421 153.296 47.7607C153.253 48.0627 153.194 48.3763 153.12 48.7014C153.063 49.0233 153.106 49.3255 153.248 49.608C153.477 49.3727 153.793 49.0514 154.196 48.6439C154.612 48.2165 155.059 47.7742 155.538 47.3171C156.034 46.8566 156.547 46.4012 157.079 45.9508C157.628 45.4971 158.15 45.1264 158.645 44.8386C159.137 44.5342 159.589 44.3326 160.001 44.2338C160.429 44.1318 160.77 44.1939 161.021 44.4201C161.273 44.6464 161.418 45.0749 161.457 45.7057C161.509 46.3167 161.414 47.1895 161.173 48.3244C161.146 48.4505 161.077 48.7574 160.967 49.2452C160.87 49.7131 160.756 50.2274 160.625 50.7881C160.508 51.329 160.394 51.8433 160.283 52.3311C160.186 52.799 160.124 53.096 160.097 53.222C160.094 53.2918 160.094 53.4212 160.096 53.6104C160.113 53.7798 160.126 53.9757 160.135 54.1981C160.141 54.4039 160.131 54.6131 160.104 54.8255C160.074 55.0213 160.019 55.1788 159.939 55.2982C159.859 55.4175 159.741 55.4322 159.585 55.3423C159.426 55.2357 159.335 55.1675 159.312 55.1376ZM166.211 53.7722C166.188 53.7423 166.161 53.6526 166.132 53.5032C166.102 53.3537 166.091 53.2525 166.098 53.1994C166.111 53.0068 166.14 52.6733 166.184 52.1986C166.225 51.7074 166.271 51.1979 166.322 50.6702C166.369 50.1259 166.415 49.6164 166.459 49.1418C166.504 48.6672 166.532 48.3336 166.546 48.1411C166.567 47.8955 166.589 47.615 166.613 47.2997C166.633 46.9677 166.591 46.6656 166.485 46.3931C166.229 46.4092 165.929 46.5032 165.583 46.6751C165.234 46.8305 164.884 46.9775 164.531 47.1162C164.193 47.235 163.861 47.3007 163.535 47.3133C163.223 47.3061 162.968 47.1495 162.769 46.8437C162.886 46.3892 163.133 46.0643 163.508 45.8692C163.88 45.6575 164.294 45.4808 164.749 45.3389C165.204 45.1971 165.63 45.0353 166.025 44.8535C166.437 44.6685 166.733 44.3769 166.913 43.9789C166.977 43.5176 167.048 42.9601 167.126 42.3062C167.217 41.6325 167.311 40.9323 167.409 40.2055C167.506 39.4786 167.622 38.7569 167.757 38.0401C167.908 37.32 168.081 36.673 168.278 36.0991C168.438 35.9467 168.586 35.9089 168.722 35.9855C168.858 36.0621 168.97 36.1951 169.06 36.3845C169.162 36.554 169.242 36.7368 169.298 36.9328C169.354 37.1287 169.38 37.2616 169.376 37.3313C169.362 37.7827 169.28 38.2822 169.129 38.8296C168.992 39.3572 168.865 39.8914 168.748 40.4323C168.647 40.9698 168.58 41.5009 168.545 42.0253C168.528 42.5464 168.621 43.0197 168.826 43.445L174.181 42.3853C174.198 42.382 174.251 42.4319 174.34 42.535C174.427 42.6215 174.501 42.693 174.564 42.7496C174.693 42.9656 174.633 43.1414 174.384 43.277C174.135 43.4126 173.789 43.5414 173.347 43.6633C172.902 43.7687 172.391 43.8871 171.813 44.0187C171.248 44.1305 170.708 44.2804 170.194 44.4686C169.692 44.6369 169.252 44.8534 168.873 45.1182C168.49 45.3664 168.259 45.6797 168.179 46.058C167.967 47.2559 167.79 48.4556 167.648 49.6571C167.503 50.8419 167.378 52.0401 167.273 53.2515C167.249 53.3079 167.199 53.4041 167.123 53.54C167.043 53.6594 166.953 53.7721 166.853 53.8781C166.75 53.9675 166.639 54.0154 166.519 54.0218C166.416 54.0249 166.314 53.9417 166.211 53.7722ZM176.772 51.6823C176.241 51.6149 175.81 51.4414 175.478 51.1618C175.16 50.8624 174.918 50.5134 174.753 50.1147C174.588 49.716 174.486 49.2875 174.447 48.8293C174.422 48.3512 174.434 47.8915 174.485 47.4501C174.878 46.8201 175.314 46.104 175.794 45.3016C176.287 44.4793 176.816 43.667 177.382 42.8648C177.948 42.0626 178.549 41.3053 179.184 40.5928C179.833 39.8605 180.518 39.2677 181.24 38.8143C181.482 38.6455 181.692 38.6128 181.867 38.716C182.056 38.7994 182.21 38.9674 182.329 39.2199C182.448 39.4724 182.534 39.7747 182.586 40.1267C182.655 40.4754 182.698 40.8207 182.714 41.1627C182.73 41.5046 182.722 41.8167 182.692 42.0988C182.662 42.3809 182.615 42.58 182.551 42.696C182.398 42.9679 182.062 43.3192 181.543 43.7497C181.041 44.1769 180.479 44.6505 179.857 45.1704C179.232 45.6737 178.61 46.1936 177.992 46.7302C177.373 47.2667 176.879 47.7786 176.51 48.2658C176.137 48.7365 175.947 49.171 175.94 49.5693C175.932 49.9677 176.234 50.2704 176.844 50.4774C177.422 50.4321 178.098 50.2725 178.872 49.9985C179.659 49.7047 180.448 49.376 181.239 49.0124C182.043 48.6289 182.814 48.2521 183.552 47.8818C184.286 47.4948 184.889 47.1857 185.361 46.9543L185.714 47.1691C185.444 47.7229 184.934 48.2813 184.182 48.8441C183.431 49.4069 182.6 49.9164 181.689 50.3727C180.775 50.8124 179.87 51.1641 178.973 51.4279C178.073 51.675 177.339 51.7598 176.772 51.6823ZM180.842 40.9896C180.822 40.9763 180.712 41.0756 180.513 41.2877C180.31 41.4831 180.06 41.7482 179.764 42.0829C179.481 42.3977 179.172 42.7523 178.836 43.1466C178.513 43.5211 178.212 43.874 177.932 44.2054C177.669 44.5335 177.45 44.8186 177.273 45.0606C177.094 45.2859 177.02 45.3954 177.053 45.3888C177.329 45.386 177.663 45.2854 178.055 45.0871C178.46 44.8688 178.864 44.599 179.267 44.2779C179.686 43.9534 180.075 43.6089 180.434 43.2445C180.79 42.8634 181.056 42.5088 181.233 42.1805C181.426 41.8489 181.501 41.5752 181.459 41.3593C181.432 41.1402 181.227 41.0169 180.842 40.9896ZM187.607 49.5382C187.076 49.4707 186.644 49.2972 186.313 49.0177C185.995 48.7183 185.753 48.3692 185.588 47.9705C185.423 47.5718 185.321 47.1434 185.282 46.6852C185.256 46.2071 185.269 45.7474 185.32 45.3059C185.713 44.676 186.149 43.9598 186.629 43.1574C187.122 42.3352 187.651 41.5229 188.217 40.7207C188.783 39.9185 189.384 39.1612 190.019 38.4487C190.668 37.7164 191.353 37.1235 192.074 36.6702C192.317 36.5014 192.526 36.4686 192.702 36.5719C192.891 36.6553 193.045 36.8232 193.164 37.0758C193.283 37.3283 193.369 37.6306 193.421 37.9826C193.49 38.3313 193.533 38.6766 193.549 39.0186C193.565 39.3605 193.557 39.6725 193.527 39.9547C193.496 40.2368 193.449 40.4359 193.386 40.5519C193.233 40.8238 192.897 41.175 192.378 41.6055C191.876 42.0328 191.314 42.5063 190.692 43.0263C190.067 43.5296 189.445 44.0495 188.827 44.586C188.208 45.1226 187.714 45.6345 187.345 46.1217C186.972 46.5924 186.782 47.0268 186.774 47.4252C186.767 47.8235 187.068 48.1262 187.679 48.3333C188.257 48.288 188.932 48.1284 189.706 47.8544C190.494 47.5605 191.283 47.2318 192.074 46.8683C192.878 46.4848 193.649 46.1079 194.386 45.7376C195.121 45.3507 195.724 45.0415 196.196 44.8101L196.549 45.025C196.279 45.5788 195.768 46.1371 195.017 46.7C194.266 47.2628 193.435 47.7723 192.524 48.2286C191.61 48.6683 190.705 49.02 189.808 49.2837C188.908 49.5309 188.174 49.6157 187.607 49.5382ZM191.677 38.8455C191.657 38.8321 191.547 38.9315 191.347 39.1436C191.145 39.339 190.895 39.6041 190.599 39.9388C190.316 40.2536 190.007 40.6081 189.671 41.0025C189.348 41.377 189.047 41.7299 188.767 42.0613C188.504 42.3894 188.284 42.6745 188.108 42.9164C187.928 43.1418 187.855 43.2512 187.888 43.2447C188.164 43.2419 188.498 43.1413 188.89 42.9429C189.295 42.7247 189.699 42.4549 190.101 42.1337C190.52 41.8092 190.909 41.4648 191.269 41.1004C191.625 40.7193 191.891 40.3646 192.068 40.0364C192.261 39.7048 192.336 39.4311 192.293 39.2152C192.267 38.996 192.062 38.8728 191.677 38.8455ZM206.975 45.3947C206.259 45.0878 205.697 44.6468 205.29 44.0717C204.88 43.4799 204.536 42.8319 204.258 42.1276L203.984 42.1818C202.856 43.5439 201.848 44.5975 200.96 45.3426C200.089 46.0845 199.326 46.5892 198.672 46.8567C198.014 47.1077 197.471 47.1547 197.043 46.9979C196.615 46.841 196.3 46.5581 196.099 46.1494C195.91 45.7208 195.832 45.1928 195.863 44.5655C195.894 43.9381 196.033 43.2894 196.28 42.6193C196.524 41.9326 196.882 41.2578 197.355 40.5948C197.827 39.9318 198.403 39.3521 199.081 38.8555C199.776 38.3556 200.572 37.9738 201.469 37.7101C202.379 37.4264 203.395 37.3289 204.517 37.4175L204.732 37.0644L206.758 29.649C207.22 29.6267 207.525 29.7734 207.674 30.089C207.822 30.4047 207.886 30.7717 207.866 31.1899C207.862 31.6048 207.806 32.0214 207.699 32.4394C207.605 32.8376 207.533 33.1279 207.483 33.3104C207.453 33.4199 207.391 33.6306 207.297 33.9424C207.22 34.251 207.122 34.6243 207.001 35.0622C206.894 35.4803 206.776 35.9265 206.645 36.401C206.515 36.8754 206.389 37.3316 206.269 37.7696C206.162 38.1876 206.063 38.5609 205.973 38.8894C205.879 39.2012 205.824 39.402 205.807 39.4916C205.63 40.1651 205.619 40.8489 205.773 41.5431C205.941 42.2173 206.112 42.865 206.287 43.4861C206.413 43.7719 206.595 43.9946 206.834 44.1545C207.069 44.2977 207.311 44.431 207.56 44.5543C207.822 44.6578 208.076 44.7628 208.321 44.8696C208.583 44.973 208.81 45.1179 209.002 45.3042C208.979 45.5332 208.867 45.6674 208.668 45.7068C208.472 45.7629 208.258 45.7707 208.025 45.7304C207.793 45.6901 207.574 45.6299 207.368 45.5498C207.163 45.4697 207.032 45.418 206.975 45.3947ZM197.463 46.1123C197.585 46.3815 197.851 46.4152 198.26 46.2136C198.685 46.0086 199.16 45.6643 199.686 45.1807C200.208 44.6805 200.749 44.099 201.308 43.4362C201.883 42.7701 202.384 42.1188 202.811 41.4823C203.253 40.8425 203.58 40.2688 203.79 39.7613C204.017 39.2506 204.051 38.8988 203.892 38.7059C203.321 38.5255 202.72 38.4977 202.089 38.6226C201.458 38.7474 200.85 38.9885 200.265 39.3459C199.694 39.6833 199.158 40.1171 198.659 40.6473C198.174 41.1575 197.784 41.7177 197.491 42.328C197.214 42.9349 197.055 43.5703 197.014 44.2342C196.986 44.8781 197.136 45.5042 197.463 46.1123ZM66.4291 108.626C65.8782 108.545 65.4089 108.353 65.0211 108.05C64.6167 107.751 64.2888 107.401 64.0373 107.002C63.7725 106.623 63.5807 106.221 63.4621 105.796C63.3268 105.374 63.2596 104.991 63.2603 104.646C63.2444 104.304 63.2931 104.027 63.4063 103.814C63.5063 103.622 63.6559 103.549 63.8549 103.596C64.1242 105.044 64.5138 106.097 65.0237 106.755C65.5203 107.434 66.0772 107.807 66.6946 107.874C67.2986 107.962 67.9379 107.792 68.6127 107.365C69.2709 106.942 69.9061 106.359 70.5184 105.616C71.1506 104.887 71.7167 104.042 72.2166 103.08C72.7364 102.132 73.14 101.163 73.4275 100.175C73.7183 99.2026 73.8779 98.2651 73.9063 97.3622C73.9314 96.4427 73.7654 95.6473 73.4082 94.976C72.1273 96.3511 71.0997 97.2619 70.3253 97.7085C69.5509 98.1551 68.973 98.2867 68.5917 98.1033C68.2236 97.9001 68.0319 97.4548 68.0167 96.7676C68.0015 96.0804 68.106 95.3005 68.3302 94.4279C68.5544 93.5553 68.8782 92.6629 69.3017 91.7509C69.7218 90.8222 70.1849 90.0231 70.6908 89.3536C71.1968 88.684 71.7173 88.2187 72.2522 87.9575C72.8039 87.693 73.3199 87.7721 73.8004 88.1947C74.2842 88.6338 74.663 89.2836 74.9368 90.144C75.2073 90.9877 75.3729 91.9557 75.4338 93.048C75.4947 94.1403 75.4491 95.3054 75.2972 96.5434C75.162 97.778 74.9288 98.9975 74.5977 100.202C74.2699 101.423 73.8426 102.577 73.3159 103.665C72.8058 104.75 72.2063 105.688 71.5176 106.48C70.8288 107.272 70.0574 107.864 69.2035 108.258C68.3528 108.668 67.428 108.79 66.4291 108.626ZM69.0655 95.2659C69.0587 95.3191 69.0602 95.4137 69.0699 95.5498C69.0962 95.6826 69.1241 95.8238 69.1537 95.9732C69.1832 96.1227 69.2112 96.2638 69.2375 96.3966C69.2804 96.5262 69.315 96.6142 69.3415 96.6608C69.8992 96.6885 70.4225 96.4555 70.9115 95.9618C71.4005 95.4682 71.8183 94.8765 72.1649 94.1867C72.5282 93.4936 72.8018 92.7838 72.9859 92.0571C73.1865 91.3272 73.2757 90.7315 73.2534 90.27C73.2477 89.8053 73.1154 89.5726 72.8565 89.5721C72.5943 89.555 72.1902 89.911 71.6443 90.6402C71.4812 90.8623 71.2648 91.164 70.9951 91.5452C70.7254 91.9264 70.4524 92.3342 70.176 92.7685C69.9162 93.1995 69.6763 93.6439 69.4562 94.1015C69.2495 94.5393 69.1193 94.9275 69.0655 95.2659ZM78.0863 98.735C78.0498 98.725 78.012 98.5341 77.9729 98.1622C77.9472 97.7704 77.92 97.284 77.8913 96.703C77.8626 96.122 77.8473 95.478 77.8454 94.7709C77.8435 94.0638 77.8565 93.3882 77.8843 92.7443C77.9089 92.0837 77.9582 91.5045 78.0323 91.0067C78.1196 90.489 78.2283 90.1224 78.3582 89.9069C78.4514 89.7677 78.5676 89.7447 78.7069 89.8379C78.8428 89.9145 78.9854 90.0244 79.1344 90.1674C79.2803 90.2939 79.4244 90.412 79.5669 90.5218C79.7062 90.6151 79.8324 90.5987 79.9455 90.4728C80.2823 89.7332 80.6671 89.0186 81.1001 88.329C81.5464 87.6195 82.0672 86.9815 82.6626 86.415C82.7191 86.3521 82.887 86.2412 83.1662 86.0824C83.4421 85.907 83.7611 85.7317 84.1233 85.5565C84.4822 85.3647 84.8544 85.1962 85.2398 85.0509C85.6385 84.8857 85.9806 84.7835 86.2662 84.7442C86.565 84.6851 86.7791 84.7204 86.9083 84.8501C87.0508 84.9599 87.047 85.2023 86.8969 85.5771C85.9038 85.7909 85.0315 86.2655 84.2797 87.0009C83.528 87.7364 82.869 88.5915 82.3026 89.5663C81.7363 90.5412 81.2512 91.5776 80.8473 92.6756C80.4401 93.757 80.0945 94.7572 79.8105 95.6761C79.543 96.5918 79.3141 97.3532 79.1236 97.9603C78.9498 98.5642 78.7964 98.8792 78.6636 98.9055C78.647 98.9088 78.5657 98.8904 78.4197 98.8502C78.2704 98.7935 78.1593 98.7551 78.0863 98.735ZM91.4368 96.0931C90.6835 95.9488 90.1597 95.6125 89.8653 95.084C89.5875 94.5523 89.4726 93.928 89.5205 93.211C89.5652 92.4775 89.7394 91.701 90.0431 90.8817C90.3436 90.0457 90.707 89.2663 91.1334 88.5435C91.5598 87.8207 92.0059 87.1975 92.4717 86.6739C92.9508 86.1305 93.3847 85.7944 93.7734 85.6657C94.7766 85.3292 95.5968 85.2445 96.2338 85.4118C96.8842 85.5592 97.3682 85.8689 97.6859 86.3409C98.0037 86.813 98.1817 87.4075 98.2201 88.1247C98.2552 88.8252 98.1674 89.5587 97.9567 90.3251C97.7626 91.0882 97.4557 91.8478 97.0359 92.6038C96.6327 93.3566 96.1433 94.0228 95.5678 94.6026C95.0057 95.1625 94.3741 95.5895 93.673 95.8835C92.9687 96.1609 92.2233 96.2308 91.4368 96.0931ZM90.8819 94.7276C91.1198 95.2326 91.4613 95.4757 91.9062 95.4567C92.3477 95.421 92.8245 95.2145 93.3365 94.8371C93.8618 94.4398 94.3891 93.9214 94.9182 93.2817C95.444 92.6255 95.9035 91.9393 96.2967 91.223C96.7065 90.5035 97.0166 89.8036 97.2272 89.1235C97.451 88.4235 97.5086 87.8427 97.4 87.3811C97.308 86.9161 97.0148 86.6118 96.5205 86.468C96.0395 86.3044 95.299 86.3991 94.299 86.7523C94.1093 87.0142 93.863 87.339 93.5601 87.7268C93.2539 88.098 92.9377 88.5057 92.6115 88.9499C92.3019 89.3907 91.9988 89.8648 91.7023 90.3722C91.4026 90.8629 91.1559 91.3603 90.9623 91.8645C90.7688 92.3687 90.6516 92.8664 90.6108 93.3577C90.5865 93.8456 90.6769 94.3022 90.8819 94.7276ZM108.498 92.7167C108.117 92.5333 107.796 92.2605 107.534 91.8981C107.273 91.5357 107.048 91.1402 106.859 90.7116C106.688 90.2797 106.541 89.8429 106.419 89.4011C106.297 88.9593 106.201 88.5641 106.132 88.2154C106.093 88.1888 106.04 88.182 105.973 88.1952C105.923 88.205 105.885 88.2298 105.858 88.2696C105.502 88.6507 105.175 89.0865 104.875 89.5772C104.575 90.0679 104.277 90.567 103.98 91.0743C103.701 91.5783 103.421 92.0823 103.141 92.5863C102.874 93.0705 102.593 93.523 102.297 93.944C102.08 94.0731 101.845 94.1456 101.589 94.1617C101.33 94.1612 101.098 94.1209 100.892 94.0408C100.7 93.9408 100.542 93.7994 100.42 93.6166C100.311 93.4138 100.286 93.1598 100.347 92.8545C100.462 91.7792 100.59 90.6408 100.732 89.4394C100.887 88.218 101.071 87.0515 101.282 85.9399C101.359 85.545 101.477 85.3145 101.637 85.2484C101.813 85.1791 101.984 85.2143 102.15 85.3541C102.315 85.4938 102.453 85.7082 102.562 85.9973C102.667 86.2697 102.698 86.5569 102.654 86.8589C102.631 87.0016 102.587 87.2604 102.523 87.6354C102.456 87.9938 102.387 88.3871 102.317 88.8152C102.243 89.2267 102.174 89.6199 102.11 89.9949C102.046 90.3699 102.003 90.6287 101.979 90.7714L102.147 91.6183C102.57 91.0515 102.919 90.5509 103.196 90.1166C103.472 89.6823 103.724 89.2529 103.95 88.8284C104.19 88.3841 104.435 87.9215 104.685 87.4406C104.932 86.9432 105.246 86.3546 105.63 85.6748C105.923 85.1509 106.174 84.851 106.383 84.7751C106.589 84.6825 106.765 84.7426 106.911 84.9554C107.07 85.1483 107.2 85.4589 107.302 85.8874C107.401 86.2992 107.491 86.7558 107.573 87.2573C107.669 87.7388 107.749 88.232 107.814 88.7367C107.876 89.2248 107.944 89.6515 108.016 90.0168C108.102 90.3622 108.194 90.6114 108.293 90.7643C108.389 90.9006 108.511 90.8594 108.657 90.6406C108.794 90.2856 108.994 89.7715 109.258 89.0981C109.521 88.4248 109.823 87.6834 110.164 86.8741C110.501 86.0482 110.879 85.2141 111.299 84.3717C111.732 83.5095 112.19 82.7286 112.673 82.0292C113.153 81.3131 113.658 80.7298 114.19 80.2794C114.719 79.8124 115.266 79.5662 115.83 79.5408C115.86 79.6039 115.796 79.8063 115.64 80.1479C115.5 80.4863 115.296 80.8975 115.03 81.3816C114.776 81.8459 114.49 82.3598 114.17 82.9235C113.864 83.4673 113.554 83.9945 113.241 84.5051C112.944 85.0124 112.681 85.47 112.451 85.8779C112.221 86.2857 112.065 86.5842 111.981 86.7732C111.945 86.8495 111.866 87.0203 111.746 87.2856C111.639 87.5311 111.509 87.8329 111.356 88.1911C111.216 88.5295 111.056 88.8976 110.876 89.2956C110.712 89.6903 110.554 90.0668 110.4 90.425C110.247 90.7832 110.11 91.095 109.99 91.3603C109.887 91.6224 109.817 91.7915 109.78 91.8678C109.673 92.1132 109.583 92.3122 109.51 92.4648C109.437 92.6174 109.355 92.7284 109.265 92.7979C109.192 92.8642 109.094 92.8922 108.971 92.882C108.848 92.8718 108.691 92.8167 108.498 92.7167ZM121.027 90.2374C121.004 90.2075 120.977 90.1178 120.948 89.9683C120.918 89.8189 120.907 89.7176 120.914 89.6645C120.927 89.472 120.956 89.1384 121 88.6638C121.041 88.1726 121.087 87.6631 121.138 87.1354C121.185 86.5911 121.231 86.0816 121.275 85.607C121.32 85.1323 121.348 84.7988 121.362 84.6062C121.383 84.3606 121.405 84.0802 121.429 83.7648C121.449 83.4329 121.407 83.1307 121.301 82.8583C121.045 82.8744 120.745 82.9684 120.399 83.1403C120.05 83.2956 119.7 83.4426 119.347 83.5814C119.009 83.7002 118.677 83.7659 118.351 83.7785C118.039 83.7712 117.784 83.6147 117.585 83.3089C117.702 82.8543 117.949 82.5295 118.324 82.3344C118.696 82.1227 119.11 81.9459 119.565 81.8041C120.02 81.6623 120.446 81.5005 120.841 81.3187C121.253 81.1336 121.549 80.8421 121.729 80.4441C121.793 79.9828 121.864 79.4252 121.942 78.7714C122.033 78.0977 122.127 77.3974 122.225 76.6706C122.322 75.9438 122.438 75.222 122.573 74.5052C122.724 73.7852 122.897 73.1382 123.094 72.5643C123.254 72.4119 123.402 72.374 123.538 72.4507C123.674 72.5273 123.786 72.6603 123.876 72.8497C123.978 73.0192 124.058 73.202 124.114 73.3979C124.17 73.5939 124.196 73.7268 124.192 73.7965C124.178 74.2479 124.096 74.7474 123.945 75.2948C123.808 75.8223 123.681 76.3566 123.564 76.8974C123.463 77.435 123.396 77.966 123.361 78.4905C123.344 79.0116 123.437 79.4849 123.642 79.9102L128.997 78.8505C129.014 78.8472 129.067 78.8971 129.156 79.0002C129.243 79.0867 129.317 79.1582 129.38 79.2147C129.509 79.4308 129.449 79.6066 129.2 79.7422C128.951 79.8778 128.605 80.0066 128.163 80.1285C127.718 80.2338 127.207 80.3523 126.629 80.4839C126.064 80.5956 125.525 80.7456 125.01 80.9338C124.508 81.1021 124.068 81.3186 123.689 81.5834C123.306 81.8316 123.075 82.1449 122.995 82.5231C122.783 83.7211 122.606 84.9208 122.464 86.1223C122.319 87.3071 122.194 88.5052 122.089 89.7167C122.065 89.7731 122.015 89.8693 121.939 90.0052C121.859 90.1246 121.769 90.2372 121.669 90.3433C121.566 90.4327 121.455 90.4806 121.335 90.487C121.232 90.4901 121.13 90.4069 121.027 90.2374ZM129.686 88.2134C129.662 88.1834 129.646 88.1436 129.636 88.0937C129.623 88.0273 129.621 87.9759 129.631 87.9394C129.671 87.7934 129.735 87.5479 129.822 87.2028C129.922 86.8378 130.021 86.4646 130.118 86.083C130.228 85.6815 130.335 85.3066 130.439 84.9583C130.543 84.6099 130.615 84.3627 130.655 84.2168C130.678 84.1604 130.733 84.0028 130.82 83.744C130.923 83.482 131.042 83.1652 131.175 82.7937C131.322 82.4022 131.471 81.976 131.621 81.5148C131.788 81.0504 131.948 80.596 132.102 80.1514C132.272 79.7036 132.422 79.2856 132.553 78.8975C132.7 78.5061 132.816 78.181 132.903 77.9222C133.127 77.3085 133.381 76.5854 133.665 75.7527C133.965 74.9167 134.272 74.0709 134.586 73.215C134.9 72.3592 135.21 71.5299 135.517 70.7271C135.841 69.9211 136.148 69.2478 136.437 68.7073C136.727 68.1668 136.99 67.7955 137.226 67.5935C137.463 67.3915 137.665 67.455 137.834 67.784L137.991 68.581C137.911 68.7867 137.801 69.0586 137.661 69.397C137.518 69.7187 137.371 70.067 137.221 70.4418C137.084 70.7967 136.945 71.1433 136.805 71.4817C136.665 71.82 136.562 72.082 136.495 72.2678C136.392 72.5298 136.225 72.9511 135.994 73.5316C135.764 74.1121 135.506 74.7672 135.219 75.4969C134.932 76.2267 134.643 76.9913 134.353 77.7907C134.059 78.5736 133.798 79.3067 133.571 79.9901C133.344 80.6735 133.167 81.2607 133.04 81.7518C132.926 82.2229 132.906 82.5117 132.978 82.6181C133.354 82.423 133.736 82.1316 134.125 81.744C134.528 81.3365 134.927 80.9124 135.323 80.4717C135.719 80.031 136.118 79.6068 136.521 79.1993C136.92 78.7752 137.301 78.4324 137.663 78.1709C138.072 78.1418 138.45 78.2223 138.798 78.4122C139.146 78.6021 139.424 78.8749 139.633 79.2305C139.646 79.3833 139.685 79.6688 139.751 80.0873C139.83 80.4858 139.913 80.9092 140.002 81.3575C140.091 81.8059 140.175 82.2293 140.253 82.6278C140.349 83.0231 140.42 83.2938 140.466 83.4399C140.519 83.6193 140.648 83.8353 140.853 84.0881C141.055 84.3242 141.267 84.5669 141.489 84.8163C141.724 85.0459 141.928 85.2471 142.1 85.4201C142.289 85.5898 142.377 85.6846 142.363 85.7045C142.054 85.8864 141.741 85.9572 141.422 85.9167C141.1 85.8596 140.8 85.7378 140.521 85.5514C140.256 85.345 140.019 85.1072 139.811 84.8378C139.615 84.5486 139.472 84.2579 139.379 83.9656C139.333 83.8194 139.254 83.5503 139.142 83.1584C139.027 82.7498 138.908 82.3247 138.786 81.8829C138.681 81.4379 138.572 81.0194 138.46 80.6274C138.364 80.2322 138.302 79.9598 138.272 79.8104L137.64 79.6249C137.531 79.5948 137.365 79.6708 137.142 79.8529C136.936 80.0318 136.698 80.2686 136.428 80.5635C136.159 80.8584 135.879 81.1898 135.59 81.5577C135.3 81.9256 135.024 82.2736 134.761 82.6018C134.515 82.9266 134.303 83.21 134.127 83.452C133.951 83.694 133.842 83.8448 133.802 83.9045C133.696 84.0636 133.503 84.352 133.223 84.7697C132.94 85.1708 132.639 85.6101 132.319 86.0875C132.013 86.545 131.72 86.9826 131.44 87.4003C131.177 87.8147 130.994 88.1098 130.89 88.2855C130.668 88.3813 130.449 88.4506 130.233 88.4933C130.03 88.5161 129.848 88.4228 129.686 88.2134ZM158.637 82.7946C157.884 82.6503 157.36 82.3139 157.066 81.7855C156.788 81.2538 156.673 80.6295 156.721 79.9125C156.766 79.179 156.94 78.4025 157.244 77.5832C157.544 76.7472 157.908 75.9678 158.334 75.245C158.76 74.5222 159.207 73.899 159.672 73.3754C160.152 72.832 160.585 72.4959 160.974 72.3672C161.977 72.0306 162.797 71.946 163.435 72.1133C164.085 72.2606 164.569 72.5704 164.887 73.0424C165.204 73.5144 165.382 74.109 165.421 74.8262C165.456 75.5267 165.368 76.2601 165.157 77.0266C164.963 77.7897 164.656 78.5493 164.237 79.3053C163.833 80.0581 163.344 80.7243 162.769 81.3041C162.206 81.864 161.575 82.291 160.874 82.585C160.169 82.8624 159.424 82.9323 158.637 82.7946ZM158.083 81.4291C158.321 81.9341 158.662 82.1772 159.107 82.1581C159.548 82.1225 160.025 81.916 160.537 81.5386C161.063 81.1413 161.59 80.6228 162.119 79.9832C162.645 79.327 163.104 78.6407 163.497 77.9245C163.907 77.205 164.217 76.5051 164.428 75.825C164.652 75.125 164.709 74.5442 164.601 74.0825C164.509 73.6176 164.216 73.3133 163.721 73.1695C163.24 73.0059 162.5 73.1006 161.5 73.4538C161.31 73.7157 161.064 74.0405 160.761 74.4283C160.455 74.7995 160.138 75.2072 159.812 75.6513C159.503 76.0922 159.2 76.5663 158.903 77.0736C158.603 77.5643 158.357 78.0618 158.163 78.566C157.969 79.0702 157.852 79.5679 157.811 80.0591C157.787 80.5471 157.878 81.0037 158.083 81.4291ZM168.102 80.9215C168.066 80.9115 168.028 80.7206 167.989 80.3487C167.963 79.9569 167.936 79.4705 167.907 78.8895C167.879 78.3085 167.863 77.6645 167.861 76.9574C167.86 76.2503 167.873 75.5747 167.9 74.9308C167.925 74.2702 167.974 73.691 168.048 73.1932C168.136 72.6755 168.244 72.3089 168.374 72.0934C168.467 71.9542 168.584 71.9312 168.723 72.0244C168.859 72.101 169.001 72.2109 169.151 72.3539C169.296 72.4804 169.44 72.5985 169.583 72.7083C169.722 72.8016 169.848 72.7852 169.962 72.6593C170.298 71.9197 170.683 71.2051 171.116 70.5155C171.562 69.806 172.083 69.168 172.679 68.6015C172.735 68.5386 172.903 68.4277 173.182 68.2689C173.458 68.0935 173.777 67.9182 174.139 67.743C174.498 67.5512 174.87 67.3827 175.256 67.2374C175.655 67.0722 175.997 66.97 176.282 66.9307C176.581 66.8716 176.795 66.9069 176.924 67.0366C177.067 67.1464 177.063 67.3888 176.913 67.7636C175.92 67.9774 175.048 68.452 174.296 69.1874C173.544 69.9229 172.885 70.778 172.319 71.7528C171.752 72.7277 171.267 73.7641 170.863 74.8621C170.456 75.9435 170.111 76.9437 169.827 77.8626C169.559 78.7783 169.33 79.5397 169.14 80.1468C168.966 80.7507 168.813 81.0657 168.68 81.092C168.663 81.0953 168.582 81.0769 168.436 81.0367C168.287 80.98 168.175 80.9416 168.102 80.9215ZM193.159 75.9629C193.406 73.6363 193.677 71.7795 193.972 70.3925C194.281 68.9856 194.567 67.9886 194.83 67.4016C195.11 66.8112 195.335 66.5942 195.504 66.7506C195.673 66.907 195.748 67.3752 195.73 68.1553C195.728 68.9321 195.595 70.0024 195.33 71.3663C195.078 72.7102 194.655 74.2779 194.061 76.0693C193.938 76.1454 193.781 76.185 193.592 76.1879C193.403 76.1908 193.259 76.1158 193.159 75.9629ZM195.147 63.1198C195.098 63.0434 195.052 62.8972 195.009 62.6813C194.966 62.4655 194.956 62.3293 194.98 62.2729C195.335 62.0645 195.623 61.9904 195.842 62.0506C196.061 62.1108 196.215 62.2356 196.304 62.425C196.39 62.5978 196.421 62.7987 196.397 63.0277C196.39 63.2535 196.332 63.4376 196.222 63.5801C196.109 63.706 195.954 63.7538 195.759 63.7236C195.576 63.6734 195.372 63.4721 195.147 63.1198ZM201.479 74.3166C201.455 74.2867 201.429 74.197 201.399 74.0476C201.37 73.8981 201.358 73.7969 201.365 73.7438C201.379 73.5513 201.408 73.2177 201.452 72.7431C201.493 72.2518 201.539 71.7424 201.589 71.2146C201.637 70.6703 201.683 70.1608 201.727 69.6862C201.771 69.2116 201.8 68.878 201.814 68.6855C201.834 68.4399 201.856 68.1594 201.88 67.8441C201.901 67.5122 201.858 67.21 201.752 66.9376C201.497 66.9536 201.196 67.0476 200.851 67.2196C200.502 67.3749 200.151 67.5219 199.799 67.6606C199.46 67.7794 199.128 67.8451 198.803 67.8578C198.491 67.8505 198.235 67.6939 198.037 67.3881C198.154 66.9336 198.4 66.6087 198.776 66.4136C199.148 66.2019 199.562 66.0252 200.017 65.8834C200.472 65.7415 200.897 65.5797 201.292 65.3979C201.705 65.2129 202.001 64.9213 202.181 64.5234C202.245 64.062 202.315 63.5045 202.393 62.8507C202.484 62.177 202.579 61.4767 202.676 60.7499C202.774 60.0231 202.89 59.3013 203.024 58.5845C203.175 57.8644 203.349 57.2174 203.546 56.6435C203.706 56.4912 203.853 56.4533 203.989 56.5299C204.125 56.6065 204.238 56.7395 204.327 56.929C204.43 57.0985 204.509 57.2812 204.565 57.4772C204.621 57.6732 204.647 57.806 204.644 57.8757C204.63 58.3272 204.547 58.8266 204.397 59.374C204.26 59.9016 204.133 60.4358 204.015 60.9767C203.915 61.5143 203.847 62.0453 203.813 62.5697C203.795 63.0909 203.889 63.5641 204.094 63.9894L209.449 62.9297C209.466 62.9264 209.519 62.9763 209.608 63.0794C209.694 63.1659 209.769 63.2374 209.832 63.294C209.961 63.51 209.901 63.6858 209.651 63.8214C209.402 63.957 209.057 64.0858 208.615 64.2077C208.17 64.3131 207.658 64.4315 207.08 64.5632C206.516 64.6749 205.976 64.8248 205.461 65.013C204.96 65.1813 204.519 65.3978 204.14 65.6627C203.758 65.9109 203.527 66.2241 203.446 66.6024C203.235 67.8004 203.058 69.0001 202.916 70.2015C202.771 71.3863 202.646 72.5845 202.54 73.7959C202.517 73.8523 202.467 73.9485 202.39 74.0845C202.31 74.2038 202.221 74.3165 202.121 74.4225C202.018 74.5119 201.906 74.5598 201.787 74.5662C201.684 74.5694 201.581 74.4862 201.479 74.3166ZM209.3 60.4745C209.296 60.4579 209.296 60.3716 209.3 60.2156C209.32 60.0563 209.339 59.8886 209.356 59.7127C209.386 59.5169 209.416 59.3211 209.447 59.1253C209.477 58.9295 209.499 58.7785 209.512 58.6723C209.596 58.138 209.687 57.8096 209.783 57.6869C209.893 57.5444 209.996 57.5413 210.092 57.6776C210.201 57.794 210.297 58.0166 210.379 58.3454C210.478 58.671 210.552 59.0446 210.601 59.4663C210.647 59.8714 210.669 60.2897 210.668 60.7213C210.681 61.1329 210.65 61.5014 210.577 61.8265C210.516 62.1318 210.413 62.3507 210.267 62.4832C210.12 62.6157 209.928 62.602 209.689 62.4422C209.659 62.3791 209.618 62.2578 209.565 62.0784C209.529 61.8958 209.49 61.6965 209.447 61.4807C209.404 61.2648 209.365 61.0655 209.329 60.8829C209.309 60.6969 209.299 60.5608 209.3 60.4745ZM215.9 71.4627C215.675 71.3693 215.632 71.1966 215.772 70.9446C215.925 70.6727 216.184 70.3711 216.55 70.0399C216.929 69.6888 217.373 69.3162 217.882 68.9222C218.391 68.5282 218.878 68.1557 219.343 67.8048C219.825 67.4506 220.248 67.1427 220.61 66.8812C220.969 66.603 221.197 66.4027 221.293 66.28C221.749 65.7067 221.956 65.2689 221.914 64.9667C221.884 64.6446 221.702 64.4218 221.367 64.2983C221.029 64.1582 220.576 64.0926 220.008 64.1014C219.454 64.0903 218.878 64.1007 218.28 64.1327C217.696 64.1448 217.128 64.1536 216.577 64.1592C216.043 64.1614 215.626 64.1058 215.328 63.9923C215.029 63.8788 214.895 63.681 214.925 63.3989C214.969 63.0969 215.264 62.6676 215.809 62.111C216.009 61.899 216.302 61.5908 216.688 61.1866C217.074 60.7824 217.491 60.3633 217.94 59.9293C218.406 59.4921 218.87 59.0897 219.332 58.7221C219.794 58.3546 220.191 58.0948 220.524 57.9428C220.7 57.8734 220.886 57.8539 221.081 57.8841C221.294 57.9111 221.471 57.9795 221.614 58.0894C221.753 58.1826 221.829 58.3056 221.842 58.4583C221.872 58.6078 221.79 58.762 221.597 58.9209C220.756 59.6396 219.941 60.3185 219.153 60.9576C218.382 61.5934 217.615 62.2973 216.853 63.0692C216.83 63.2119 216.861 63.3265 216.947 63.413C217.05 63.4962 217.156 63.5528 217.265 63.5829C219.062 63.4173 220.433 63.4134 221.379 63.5713C222.341 63.726 222.978 63.9796 223.289 64.3321C223.617 64.6813 223.676 65.1097 223.466 65.6172C223.256 66.1247 222.894 66.6534 222.382 67.2035C221.886 67.7502 221.294 68.2901 220.606 68.8232C219.918 69.3562 219.243 69.8263 218.582 70.2333C217.937 70.6369 217.362 70.9578 216.857 71.1958C216.352 71.4338 216.033 71.5228 215.9 71.4627ZM126.82 116.304C126.78 116.277 126.745 116.189 126.716 116.04C126.686 115.891 126.684 115.796 126.711 115.756L127.852 110.535L125.486 111.003C125.436 111.013 125.38 110.99 125.317 110.933C125.27 110.873 125.222 110.805 125.173 110.729C125.136 110.632 125.102 110.544 125.069 110.465C125.032 110.368 125.026 110.292 125.049 110.235C125.096 110.209 125.18 110.158 125.303 110.082C125.426 110.006 125.556 109.919 125.692 109.823C125.829 109.727 125.958 109.641 126.081 109.565C126.204 109.489 126.287 109.43 126.331 109.387C126.377 109.36 126.5 109.284 126.7 109.158C126.916 109.029 127.14 108.899 127.373 108.766C127.619 108.614 127.841 108.475 128.041 108.349C128.24 108.224 128.362 108.139 128.405 108.096C128.578 107.924 128.746 107.554 128.91 106.987C129.087 106.399 129.278 105.706 129.482 104.906C129.686 104.107 129.913 103.251 130.164 102.338C130.412 101.409 130.701 100.515 131.031 99.6561C131.358 98.7804 131.728 97.9911 132.141 97.2881C132.551 96.5686 133.014 96.0284 133.529 95.6676C134.058 95.2869 134.647 95.1271 135.298 95.1882C135.948 95.2493 136.676 95.6143 137.481 96.2831C137.631 96.4262 137.75 96.5924 137.839 96.7818C137.925 96.9546 137.971 97.1439 137.977 97.3498C137.844 97.4624 137.698 97.5086 137.539 97.4883C137.379 97.4681 137.222 97.413 137.066 97.323C136.927 97.2298 136.796 97.1349 136.673 97.0384C136.547 96.9253 136.461 96.8388 136.415 96.7789C135.266 96.8164 134.388 97.0421 133.779 97.4558C133.184 97.8496 132.727 98.3715 132.407 99.0216C132.1 99.6517 131.865 100.38 131.7 101.206C131.536 102.032 131.327 102.893 131.073 103.789C130.996 104.011 130.906 104.297 130.802 104.645C130.715 104.99 130.626 105.327 130.536 105.655C130.446 105.984 130.364 106.268 130.29 106.506C130.233 106.742 130.205 106.86 130.205 106.86L130.264 107.159C130.277 107.225 130.495 107.234 130.916 107.185C131.338 107.136 131.813 107.094 132.341 107.058C132.885 107.02 133.411 107.019 133.919 107.057C134.44 107.074 134.799 107.185 134.994 107.387L134.774 107.716C133.818 107.853 133.018 107.994 132.373 108.139C131.729 108.284 131.186 108.503 130.744 108.798C130.302 109.093 129.942 109.5 129.666 110.021C129.386 110.525 129.134 111.213 128.91 112.086C128.833 112.394 128.731 112.794 128.603 113.285C128.473 113.76 128.343 114.234 128.212 114.709C128.078 115.166 127.968 115.568 127.881 115.913C127.791 116.241 127.739 116.416 127.726 116.435L127.481 116.769C127.425 116.745 127.308 116.682 127.133 116.579C126.97 116.455 126.866 116.364 126.82 116.304ZM138.311 114.341C138.275 114.331 138.237 114.14 138.198 113.768C138.172 113.376 138.145 112.89 138.116 112.309C138.088 111.728 138.072 111.083 138.07 110.376C138.068 109.669 138.081 108.994 138.109 108.35C138.134 107.689 138.183 107.11 138.257 106.612C138.345 106.095 138.453 105.728 138.583 105.512C138.676 105.373 138.793 105.35 138.932 105.443C139.068 105.52 139.21 105.63 139.359 105.773C139.505 105.899 139.649 106.018 139.792 106.127C139.931 106.221 140.057 106.204 140.17 106.078C140.507 105.339 140.892 104.624 141.325 103.935C141.771 103.225 142.292 102.587 142.888 102.021C142.944 101.958 143.112 101.847 143.391 101.688C143.667 101.513 143.986 101.337 144.348 101.162C144.707 100.97 145.079 100.802 145.465 100.656C145.863 100.491 146.206 100.389 146.491 100.35C146.79 100.291 147.004 100.326 147.133 100.456C147.276 100.565 147.272 100.808 147.122 101.183C146.129 101.396 145.256 101.871 144.505 102.606C143.753 103.342 143.094 104.197 142.528 105.172C141.961 106.147 141.476 107.183 141.072 108.281C140.665 109.363 140.319 110.363 140.035 111.282C139.768 112.197 139.539 112.959 139.349 113.566C139.175 114.17 139.021 114.485 138.889 114.511C138.872 114.514 138.791 114.496 138.645 114.456C138.495 114.399 138.384 114.361 138.311 114.341ZM151.811 111.669C151.28 111.602 150.849 111.428 150.518 111.149C150.2 110.849 149.958 110.5 149.793 110.101C149.628 109.703 149.525 109.274 149.487 108.816C149.461 108.338 149.474 107.878 149.524 107.437C149.917 106.807 150.354 106.091 150.833 105.288C151.326 104.466 151.856 103.654 152.422 102.852C152.988 102.049 153.588 101.292 154.224 100.58C154.873 99.8472 155.558 99.2544 156.279 98.8011C156.522 98.6322 156.731 98.5995 156.907 98.7027C157.096 98.7861 157.25 98.9541 157.369 99.2066C157.488 99.4591 157.573 99.7614 157.626 100.113C157.695 100.462 157.737 100.807 157.753 101.149C157.769 101.491 157.762 101.803 157.731 102.086C157.701 102.368 157.654 102.567 157.591 102.683C157.437 102.955 157.101 103.306 156.583 103.736C156.081 104.164 155.519 104.637 154.897 105.157C154.272 105.66 153.65 106.18 153.031 106.717C152.413 107.253 151.919 107.765 151.549 108.253C151.176 108.723 150.986 109.158 150.979 109.556C150.971 109.954 151.273 110.257 151.883 110.464C152.461 110.419 153.137 110.259 153.911 109.985C154.698 109.691 155.487 109.363 156.278 108.999C157.082 108.616 157.853 108.239 158.591 107.868C159.326 107.482 159.929 107.172 160.401 106.941L160.754 107.156C160.484 107.71 159.973 108.268 159.222 108.831C158.47 109.394 157.639 109.903 156.729 110.359C155.815 110.799 154.91 111.151 154.013 111.415C153.113 111.662 152.379 111.747 151.811 111.669ZM155.881 100.976C155.861 100.963 155.752 101.062 155.552 101.274C155.349 101.47 155.1 101.735 154.803 102.07C154.521 102.384 154.211 102.739 153.875 103.133C153.552 103.508 153.251 103.861 152.972 104.192C152.709 104.52 152.489 104.805 152.313 105.047C152.133 105.273 152.06 105.382 152.093 105.375C152.368 105.373 152.702 105.272 153.094 105.074C153.5 104.856 153.904 104.586 154.306 104.265C154.725 103.94 155.114 103.596 155.473 103.231C155.829 102.85 156.096 102.495 156.272 102.167C156.465 101.836 156.541 101.562 156.498 101.346C156.472 101.127 156.266 101.004 155.881 100.976ZM162.646 109.525C162.115 109.457 161.684 109.284 161.352 109.004C161.034 108.705 160.793 108.356 160.628 107.957C160.462 107.559 160.36 107.13 160.321 106.672C160.296 106.194 160.308 105.734 160.359 105.293C160.752 104.663 161.188 103.947 161.668 103.144C162.161 102.322 162.69 101.51 163.256 100.707C163.822 99.9052 164.423 99.1479 165.059 98.4354C165.707 97.7031 166.393 97.1103 167.114 96.6569C167.357 96.4881 167.566 96.4553 167.741 96.5586C167.931 96.642 168.085 96.8099 168.204 97.0625C168.323 97.315 168.408 97.6173 168.461 97.9693C168.53 98.318 168.572 98.6633 168.588 99.0053C168.604 99.3472 168.597 99.6593 168.566 99.9414C168.536 100.223 168.489 100.423 168.426 100.539C168.272 100.811 167.936 101.162 167.418 101.592C166.915 102.019 166.353 102.493 165.732 103.013C165.106 103.516 164.485 104.036 163.866 104.573C163.248 105.109 162.754 105.621 162.384 106.108C162.011 106.579 161.821 107.014 161.814 107.412C161.806 107.81 162.108 108.113 162.718 108.32C163.296 108.275 163.972 108.115 164.746 107.841C165.533 107.547 166.322 107.219 167.113 106.855C167.917 106.472 168.688 106.095 169.426 105.724C170.16 105.337 170.763 105.028 171.235 104.797L171.588 105.012C171.318 105.566 170.808 106.124 170.056 106.687C169.305 107.249 168.474 107.759 167.563 108.215C166.65 108.655 165.744 109.007 164.847 109.27C163.947 109.518 163.214 109.602 162.646 109.525ZM166.716 98.8322C166.696 98.8189 166.586 98.9182 166.387 99.1303C166.184 99.3257 165.934 99.5908 165.638 99.9255C165.355 100.24 165.046 100.595 164.71 100.989C164.387 101.364 164.086 101.717 163.806 102.048C163.544 102.376 163.324 102.661 163.147 102.903C162.968 103.129 162.894 103.238 162.928 103.231C163.203 103.229 163.537 103.128 163.929 102.93C164.335 102.711 164.738 102.442 165.141 102.12C165.56 101.796 165.949 101.452 166.308 101.087C166.664 100.706 166.93 100.351 167.107 100.023C167.3 99.6915 167.375 99.4178 167.333 99.2019C167.307 98.9828 167.101 98.8595 166.716 98.8322ZM171.579 107.447C171.406 107.274 171.347 107.061 171.401 106.809C171.471 106.553 171.591 106.331 171.76 106.142C171.927 105.937 172.11 105.814 172.309 105.775C172.505 105.719 172.661 105.809 172.776 106.045C172.892 106.281 172.943 106.538 172.929 106.817C172.932 107.093 172.875 107.328 172.759 107.524C172.659 107.716 172.507 107.824 172.305 107.846C172.102 107.869 171.86 107.736 171.579 107.447ZM171.608 100.142C171.555 100.049 171.523 99.7963 171.51 99.3847C171.498 98.973 171.502 98.4717 171.523 97.8809C171.541 97.2734 171.581 96.6013 171.642 95.8644C171.703 95.1276 171.781 94.3874 171.875 93.644C171.97 92.9006 172.078 92.1804 172.198 91.4836C172.319 90.7867 172.448 90.1745 172.586 89.6469C172.739 89.1161 172.9 88.7047 173.066 88.413C173.249 88.1179 173.44 87.9938 173.64 88.0407C173.673 88.1204 173.695 88.4092 173.707 88.9072C173.733 89.3853 173.74 89.9878 173.729 90.7148C173.714 91.4252 173.681 92.2169 173.629 93.0899C173.594 93.9596 173.539 94.8159 173.465 95.659C173.407 96.4987 173.322 97.292 173.211 98.0387C173.097 98.7688 172.964 99.3644 172.814 99.8255C172.664 100.287 172.485 100.563 172.279 100.656C172.073 100.749 171.85 100.577 171.608 100.142Z" fill="#FF69B3"/>
<path d="M57.8466 37.1189C57.9059 37.2215 57.9353 37.3427 57.9234 37.4698C57.8937 37.797 57.6045 38.0389 57.2765 38.009C47.7152 37.144 42.4525 31.5873 42.0561 21.9391C41.8512 16.9494 40.1673 13.6089 37.0515 12.0101C26.2724 6.47832 1.73031 22.4665 1.48375 22.6288C1.20921 22.8093 0.840047 22.733 0.659545 22.4585C0.470614 22.1813 0.555299 21.8148 0.82954 21.6338C1.85996 20.9564 26.2005 5.10377 37.5948 10.9498C41.1208 12.7601 43.0224 16.4395 43.2463 21.8898C43.6199 30.9841 48.3768 36.0087 57.3846 36.8234C57.5851 36.841 57.7529 36.9565 57.8466 37.1189Z" fill="#FF69B3"/>
<path d="M55.3279 31.8846L58.5431 37.4535C58.6327 37.6087 58.6476 37.7953 58.5835 37.9629C58.52 38.1302 58.384 38.2602 58.2143 38.3163L52.5801 40.1813C52.2679 40.2846 51.9303 40.1179 51.8277 39.8032C51.7244 39.491 51.8936 39.1541 52.2058 39.0509L57.1465 37.4157L54.2968 32.4799C54.1325 32.1953 54.2301 31.831 54.5147 31.6667C54.7993 31.5024 55.1636 31.6 55.3279 31.8846Z" fill="#FF69B3"/>
</svg>
