<svg width="1387" height="421" viewBox="0 0 1387 421" fill="none" xmlns="http://www.w3.org/2000/svg">
<path d="M107.009 0.874981V324.025H281.522V412H0.921779V0.874981H107.009ZM303.021 0.874981H409.109V238.637C409.109 254.929 410.738 268.969 413.996 280.756C417.255 292.448 422.046 302.079 428.371 309.65C434.792 317.221 442.698 322.827 452.09 326.469C461.482 330.015 472.263 331.787 484.434 331.787C496.701 331.787 507.53 330.015 516.921 326.469C526.313 322.827 534.171 317.221 540.496 309.65C546.821 302.079 551.613 292.448 554.871 280.756C558.13 268.969 559.759 254.929 559.759 238.637V0.874981H665.846V248.125C665.846 275.821 661.39 300.402 652.478 321.869C643.565 343.24 631.059 361.256 614.959 375.919C598.955 390.581 579.836 401.698 557.603 409.269C535.465 416.84 511.076 420.625 484.434 420.625C466.705 420.625 449.934 418.9 434.121 415.45C418.309 412.096 403.646 407.112 390.134 400.5C376.717 393.887 364.642 385.694 353.909 375.919C343.176 366.144 334.023 354.883 326.453 342.137C318.882 329.296 313.084 315.065 309.059 299.444C305.034 283.727 303.021 266.621 303.021 248.125V0.874981ZM698.334 412V0.731241H903.753C928.19 0.731241 949.896 3.65415 968.871 9.49997C987.942 15.25 1003.99 23.5396 1017.03 34.3687C1030.16 45.1979 1040.12 58.4229 1046.93 74.0437C1053.73 89.5687 1057.13 107.106 1057.13 126.656C1057.13 143.619 1054.45 159.048 1049.08 172.944C1043.72 186.744 1036.05 198.627 1026.08 208.594C1016.21 218.465 1004.23 226.227 990.146 231.881C976.155 237.535 960.486 240.65 943.14 241.225C959.911 242.375 974.717 248.365 987.559 259.194C1000.4 269.927 1011.42 285.548 1020.62 306.056L1068.2 412H950.184L901.74 306.2C898.003 297.958 894.457 291.202 891.103 285.931C887.748 280.565 884.107 276.348 880.178 273.281C876.344 270.215 871.984 268.106 867.096 266.956C862.305 265.71 856.507 265.087 849.703 265.087H804.421V412H698.334ZM892.109 183.15C901.501 183.15 909.838 182.048 917.121 179.844C924.405 177.64 930.538 174.429 935.521 170.212C940.601 165.996 944.434 160.821 947.021 154.687C949.609 148.458 950.903 141.415 950.903 133.556C950.903 117.744 945.871 105.717 935.809 97.475C925.746 89.2333 911.132 85.1125 891.965 85.1125H804.421V183.15H892.109ZM1381.98 0.874981V88.85H1200.86V165.756H1365.59V247.694H1200.86V324.025H1386.87V412H1094.77V0.874981H1381.98Z" fill="#FF69B3"/>
</svg>
